<svg width="303" height="212" viewBox="0 0 303 212" fill="none" xmlns="http://www.w3.org/2000/svg">
<path d="M154.748 211.551C163.862 211.551 171.249 204.216 171.249 195.168C171.249 186.12 163.862 178.785 154.748 178.785C145.635 178.785 138.247 186.12 138.247 195.168C138.247 204.216 145.635 211.551 154.748 211.551Z" fill="#4F0042"/>
<path d="M187.033 53.4219C191.788 53.4219 195.642 49.5951 195.642 44.8744C195.642 40.1538 191.788 36.3269 187.033 36.3269C182.278 36.3269 178.424 40.1538 178.424 44.8744C178.424 49.5951 182.278 53.4219 187.033 53.4219Z" fill="#F2F2F2"/>
<path d="M147.574 147.444C152.329 147.444 156.183 143.618 156.183 138.897C156.183 134.176 152.329 130.349 147.574 130.349C142.819 130.349 138.965 134.176 138.965 138.897C138.965 143.618 142.819 147.444 147.574 147.444Z" fill="#F2F2F2"/>
<path d="M209.273 165.252C214.028 165.252 217.883 161.425 217.883 156.704C217.883 151.984 214.028 148.157 209.273 148.157C204.519 148.157 200.664 151.984 200.664 156.704C200.664 161.425 204.519 165.252 209.273 165.252Z" fill="#F2F2F2"/>
<path d="M152.98 24.2191C127.192 24.4 106.076 45.2068 105.71 70.8088C105.706 71.0452 105.705 72.7073 105.705 74.8811C105.705 78.0684 106.98 81.1251 109.25 83.379C111.52 85.6328 114.599 86.8992 117.809 86.8996H117.809C119.401 86.8992 120.977 86.5876 122.447 85.9824C123.917 85.3772 125.252 84.4903 126.377 83.3725C127.502 82.2547 128.393 80.9277 129.001 79.4676C129.609 78.0074 129.921 76.4427 129.92 74.8627C129.919 73.3839 129.918 72.3604 129.918 72.2976C129.917 68.3408 130.954 64.452 132.926 61.0136C134.898 57.5753 137.738 54.7058 141.166 52.6876C144.594 50.6693 148.492 49.5717 152.476 49.5028C156.461 49.4339 160.395 50.3961 163.892 52.2946C167.389 54.1932 170.327 56.9627 172.419 60.3308C174.51 63.6989 175.683 67.5495 175.821 71.5039C175.958 75.4583 175.057 79.3802 173.205 82.8839C171.354 86.3876 168.615 89.3524 165.259 91.4865L165.263 91.4916C165.263 91.4916 148.035 102.503 142.782 117.61L142.787 117.611C141.863 120.705 141.395 123.916 141.397 127.144C141.397 128.471 141.476 140.08 141.628 149.502C141.681 152.753 143.019 155.853 145.354 158.133C147.688 160.413 150.832 161.691 154.107 161.69H154.107C155.753 161.69 157.382 161.367 158.902 160.739C160.421 160.112 161.8 159.192 162.96 158.033C164.12 156.874 165.038 155.499 165.661 153.987C166.283 152.475 166.599 150.855 166.589 149.221C166.536 140.592 166.507 130.544 166.507 129.815C166.507 120.539 175.52 111.297 182.924 105.271C191.449 98.3303 197.584 88.8725 200.048 78.2038C200.593 76.0072 200.894 73.7579 200.944 71.4963C200.944 65.2589 199.701 59.0831 197.286 53.3248C194.872 47.5665 191.333 42.3394 186.875 37.9449C182.416 33.5503 177.126 30.0751 171.309 27.7194C165.492 25.3637 159.263 24.1741 152.98 24.2191Z" fill="#4F0042"/>
<path d="M225.436 97.2264C231.379 97.2264 236.197 92.4429 236.197 86.542C236.197 80.6412 231.379 75.8577 225.436 75.8577C219.492 75.8577 214.674 80.6412 214.674 86.542C214.674 92.4429 219.492 97.2264 225.436 97.2264Z" fill="#2F2E41"/>
<path d="M205.55 207.323H201.152L199.06 190.481H205.551L205.55 207.323Z" fill="#A0616A"/>
<path d="M198.011 206.075H206.492V211.377H192.671C192.671 210.681 192.809 209.991 193.077 209.348C193.345 208.705 193.739 208.12 194.235 207.628C194.731 207.136 195.319 206.745 195.967 206.479C196.615 206.212 197.309 206.075 198.011 206.075Z" fill="#2F2E41"/>
<path d="M239.628 207.323H235.23L233.138 190.481H239.629L239.628 207.323Z" fill="#A0616A"/>
<path d="M232.089 206.075H240.57V211.377H226.749C226.749 210.681 226.887 209.991 227.155 209.348C227.424 208.705 227.817 208.12 228.313 207.628C228.809 207.136 229.398 206.745 230.045 206.479C230.693 206.212 231.388 206.075 232.089 206.075Z" fill="#2F2E41"/>
<path d="M223.8 97.2888C228.666 97.2888 232.611 93.3725 232.611 88.5415C232.611 83.7105 228.666 79.7942 223.8 79.7942C218.934 79.7942 214.99 83.7105 214.99 88.5415C214.99 93.3725 218.934 97.2888 223.8 97.2888Z" fill="#A0616A"/>
<path d="M229.051 125.508L232.994 116.515C233.951 114.406 234.226 112.053 233.779 109.782C233.332 107.511 232.187 105.434 230.501 103.836C230.154 103.497 229.786 103.179 229.399 102.886C227.454 101.375 225.057 100.551 222.587 100.546C220.927 100.552 219.287 100.914 217.781 101.607C217.651 101.664 217.526 101.725 217.397 101.785C217.149 101.903 216.905 102.031 216.669 102.163C215.124 103.043 213.81 104.271 212.832 105.749C211.853 107.226 211.239 108.911 211.037 110.667L209.297 125.141C208.859 126.277 193.248 167.305 198.708 198.628C198.766 198.963 198.93 199.27 199.177 199.505C199.423 199.74 199.739 199.891 200.078 199.935L205.613 200.683C206.017 200.738 206.427 200.639 206.761 200.406C207.094 200.172 207.326 199.822 207.41 199.426L216.697 155.474C216.755 155.201 216.904 154.955 217.119 154.776C217.334 154.596 217.604 154.493 217.885 154.484C218.165 154.474 218.441 154.559 218.668 154.723C218.895 154.888 219.06 155.124 219.136 155.392L232.258 201.613C232.352 201.949 232.554 202.245 232.833 202.456C233.112 202.667 233.454 202.781 233.804 202.781C233.909 202.78 234.014 202.771 234.117 202.752L240.878 201.46C241.271 201.387 241.623 201.171 241.864 200.854C242.105 200.537 242.218 200.142 242.181 199.747C241.187 188.745 235.907 133.639 229.051 125.508Z" fill="#2F2E41"/>
<path d="M189.561 95.821C189.5 96.3411 189.554 96.8681 189.72 97.365C189.887 97.8619 190.161 98.3165 190.523 98.6969C190.885 99.0774 191.327 99.3743 191.818 99.5668C192.308 99.7593 192.835 99.8427 193.361 99.8111L198.286 111.561L202.012 106.079L196.764 95.761C196.652 94.8866 196.22 94.0833 195.552 93.5034C194.883 92.9235 194.023 92.6074 193.135 92.6148C192.248 92.6221 191.393 92.9526 190.735 93.5436C190.076 94.1345 189.658 94.9448 189.561 95.821L189.561 95.821Z" fill="#A0616A"/>
<path d="M223.312 137.339C223.836 137.277 224.339 137.102 224.787 136.826C225.235 136.549 225.617 136.179 225.905 135.74C226.193 135.302 226.381 134.806 226.455 134.288C226.53 133.769 226.489 133.241 226.335 132.74L236.697 125.248L230.458 122.928L221.575 130.399C220.745 130.711 220.058 131.314 219.646 132.095C219.234 132.876 219.125 133.78 219.339 134.635C219.553 135.491 220.076 136.238 220.808 136.737C221.54 137.235 222.431 137.45 223.312 137.339Z" fill="#A0616A"/>
<path d="M206.421 119.395C206.023 119.394 205.627 119.356 205.237 119.279C204.295 119.101 203.411 118.695 202.664 118.098C201.916 117.501 201.328 116.73 200.952 115.854L194.052 107.501C193.906 107.325 193.8 107.119 193.74 106.899C193.681 106.678 193.67 106.447 193.708 106.222C193.745 105.997 193.831 105.782 193.959 105.592C194.087 105.403 194.255 105.242 194.45 105.122L199.359 102.105C199.54 101.994 199.742 101.919 199.953 101.886C200.163 101.852 200.378 101.86 200.585 101.909C200.793 101.959 200.988 102.048 201.16 102.173C201.333 102.298 201.478 102.455 201.589 102.636L206.452 110.59L215.765 103.757C216.506 103.371 217.363 103.263 218.178 103.452C218.993 103.641 219.713 104.115 220.205 104.788C220.697 105.46 220.929 106.286 220.859 107.114C220.788 107.943 220.42 108.718 219.822 109.299L210.527 117.717C209.434 118.792 207.958 119.395 206.421 119.395Z" fill="#2F2E41"/>
<path d="M231.584 131.957C231.572 131.957 231.559 131.957 231.546 131.956C231.32 131.951 231.097 131.898 230.893 131.802C230.688 131.706 230.506 131.568 230.359 131.397L225.995 126.342C225.846 126.17 225.736 125.969 225.671 125.751C225.607 125.534 225.59 125.305 225.621 125.08C225.652 124.856 225.731 124.64 225.852 124.448C225.974 124.256 226.135 124.092 226.325 123.966L234.497 118.557L227.093 109.72C226.663 109.007 226.505 108.164 226.648 107.345C226.792 106.526 227.227 105.786 227.875 105.26C228.523 104.733 229.34 104.456 230.177 104.478C231.014 104.5 231.815 104.821 232.434 105.381L241.432 114.111C242.14 114.754 242.68 115.557 243.007 116.452C243.334 117.348 243.437 118.308 243.307 119.252C243.177 120.195 242.819 121.094 242.263 121.869C241.706 122.645 240.969 123.275 240.113 123.706L232.759 131.454C232.608 131.612 232.426 131.739 232.224 131.825C232.022 131.912 231.804 131.957 231.584 131.957Z" fill="#2F2E41"/>
<path d="M221.56 113.331C221.49 113.331 221.42 113.326 221.351 113.318C221.047 113.281 220.76 113.158 220.524 112.965C220.288 112.771 220.113 112.514 220.02 112.225L216.74 102.242C216.658 101.99 216.671 101.716 216.776 101.472C216.881 101.229 217.071 101.031 217.312 100.916L217.418 100.866C217.515 100.82 217.61 100.775 217.708 100.732C219.237 100.028 220.902 99.6605 222.588 99.6553C224.776 99.6593 226.916 100.298 228.744 101.492C228.989 101.654 229.16 101.905 229.221 102.191C229.281 102.477 229.226 102.775 229.067 103.021L222.915 112.59C222.771 112.817 222.571 113.004 222.334 113.134C222.097 113.264 221.831 113.331 221.56 113.331Z" fill="#E6E6E6"/>
<path d="M233.92 81.7721C235.865 81.7721 237.442 80.2068 237.442 78.2759C237.442 76.3451 235.865 74.7798 233.92 74.7798C231.976 74.7798 230.399 76.3451 230.399 78.2759C230.399 80.2068 231.976 81.7721 233.92 81.7721Z" fill="#2F2E41"/>
<path d="M221.848 74.4331C219.375 74.4331 217.002 75.4087 215.253 77.1452C213.504 78.8818 212.522 81.237 212.522 83.6929V87.6105H217.375L219.696 83.6929L220.392 87.6105H235.121L231.175 83.6929C231.175 81.237 230.192 78.8818 228.443 77.1452C226.694 75.4087 224.322 74.4331 221.848 74.4331Z" fill="#2F2E41"/>
<path d="M235.73 75.8812C236.12 74.6722 236.926 73.6383 238.007 72.9612C239.088 72.284 240.375 72.007 241.642 72.1788C243.886 72.5513 245.661 74.3423 246.718 76.3426C247.775 78.3429 248.263 80.5816 248.974 82.7275C249.685 84.8734 250.693 87.031 252.487 88.4202C254.281 89.8093 257.034 90.1861 258.796 88.7571C258.595 90.2463 257.927 91.6351 256.888 92.7268C255.848 93.8186 254.488 94.5582 253.002 94.841C251.516 95.1238 249.977 94.9354 248.605 94.3026C247.232 93.6698 246.094 92.6245 245.353 91.3147C244.423 89.6722 244.183 87.7472 243.907 85.8831C243.631 84.019 243.273 82.0902 242.163 80.5621C241.053 79.034 238.975 78.036 237.211 78.732L235.73 75.8812Z" fill="#2F2E41"/>
<path d="M121.228 81.215C118.017 81.2146 114.939 79.9482 112.669 77.6944C110.399 75.4406 109.123 72.3838 109.123 69.1965C109.123 67.0226 109.124 65.3606 109.128 65.1242C109.23 57.6784 111.118 50.3641 114.637 43.788C108.856 51.6456 105.677 61.0928 105.541 70.8226C105.537 71.0589 105.536 72.721 105.536 74.8948C105.536 78.0821 106.811 81.1389 109.081 83.3927C111.351 85.6466 114.43 86.913 117.64 86.9133C120.278 86.9123 122.844 86.0565 124.948 84.4758C127.051 82.8951 128.577 80.6759 129.294 78.1555C127.078 80.1288 124.205 81.2186 121.228 81.215Z" fill="#3F3D56"/>
<path d="M153.801 49.5433C157.512 49.7193 161.125 50.7869 164.33 52.6545C167.534 54.5222 170.234 57.134 172.197 60.2657C174.161 63.3975 175.329 66.9556 175.603 70.6345C175.876 74.3135 175.246 78.0034 173.767 81.3874C175.907 78.8924 177.479 75.9688 178.378 72.8157C179.276 69.6626 179.479 66.3542 178.973 63.1161C178.467 59.878 177.264 56.7864 175.445 54.0519C173.627 51.3174 171.235 49.0044 168.435 47.2706C165.634 45.5368 162.49 44.4229 159.216 44.0049C155.943 43.5869 152.617 43.8747 149.466 44.8485C146.314 45.8223 143.411 47.4593 140.955 49.6479C138.499 51.8365 136.546 54.5253 135.231 57.5308C137.504 54.8766 140.36 52.776 143.58 51.3912C146.799 50.0063 150.296 49.3741 153.801 49.5433Z" fill="#3F3D56"/>
<path d="M157.525 156.005C154.25 156.006 151.106 154.729 148.772 152.449C146.437 150.168 145.099 147.068 145.045 143.817C144.894 134.395 144.815 122.786 144.815 121.459C144.813 118.232 145.281 115.021 146.204 111.926L146.2 111.925C146.745 110.372 147.404 108.86 148.171 107.402C145.817 110.516 143.944 113.961 142.613 117.623L142.617 117.624C141.694 120.719 141.226 123.93 141.228 127.158C141.228 128.484 141.306 140.093 141.458 149.516C141.511 152.767 142.85 155.867 145.184 158.147C147.519 160.427 150.663 161.705 153.938 161.704C156.638 161.703 159.266 160.834 161.426 159.225C163.586 157.617 165.163 155.356 165.92 152.783C163.625 154.86 160.631 156.01 157.525 156.005Z" fill="#3F3D56"/>
<path d="M151.113 207.555C148.768 206.541 146.694 205.001 145.052 203.055C143.41 201.109 142.247 198.81 141.653 196.341C141.059 193.872 141.051 191.3 141.63 188.828C142.209 186.355 143.359 184.05 144.989 182.094C143.099 183.464 141.525 185.218 140.37 187.238C139.214 189.258 138.505 191.499 138.289 193.812C138.073 196.126 138.355 198.458 139.117 200.655C139.878 202.851 141.101 204.862 142.705 206.554C144.309 208.245 146.257 209.579 148.419 210.466C150.582 211.353 152.91 211.773 155.248 211.698C157.587 211.624 159.883 211.056 161.984 210.033C164.085 209.01 165.942 207.555 167.434 205.765C165.108 207.453 162.377 208.506 159.513 208.82C156.65 209.134 153.753 208.698 151.113 207.555Z" fill="#3F3D56"/>
</svg>
