<svg width="213" height="162" viewBox="0 0 213 162" fill="none" xmlns="http://www.w3.org/2000/svg">
<g clip-path="url(#clip0)">
<path d="M85.2328 33.5951H84.4557V12.3158C84.4557 10.6985 84.1371 9.09701 83.5179 7.60278C82.8988 6.10856 81.9913 4.75087 80.8473 3.60723C79.7032 2.4636 78.3451 1.55642 76.8503 0.937492C75.3556 0.318562 73.7535 1.37034e-06 72.1356 0H27.037C23.7694 -6.22681e-06 20.6358 1.29754 18.3253 3.60721C16.0148 5.91687 14.7168 9.04945 14.7168 12.3158V129.055C14.7168 130.673 15.0355 132.274 15.6546 133.768C16.2738 135.263 17.1812 136.62 18.3253 137.764C19.4693 138.908 20.8275 139.815 22.3222 140.434C23.817 141.053 25.419 141.371 27.0369 141.371H72.1356C75.4031 141.371 78.5367 140.074 80.8472 137.764C83.1577 135.454 84.4557 132.322 84.4557 129.055V48.742H85.2328V33.5951Z" fill="#3F3D56"/>
<path d="M72.6321 3.2041H66.7452C67.016 3.86759 67.1193 4.58746 67.0462 5.30028C66.973 6.0131 66.7256 6.697 66.3258 7.29173C65.926 7.88647 65.386 8.37378 64.7534 8.71074C64.1208 9.0477 63.415 9.22398 62.6982 9.22403H36.8617C36.1449 9.22398 35.4391 9.04771 34.8065 8.71074C34.1739 8.37378 33.6339 7.88647 33.234 7.29174C32.8342 6.697 32.5868 6.0131 32.5137 5.30028C32.4405 4.58746 32.5439 3.86759 32.8146 3.2041H27.3163C26.108 3.2041 24.9116 3.442 23.7954 3.90421C22.6791 4.36641 21.6649 5.04388 20.8105 5.89793C19.9562 6.75198 19.2784 7.76589 18.8161 8.88176C18.3537 9.99763 18.1157 11.1936 18.1157 12.4014V128.97C18.1157 130.177 18.3537 131.373 18.8161 132.489C19.2784 133.605 19.9561 134.619 20.8105 135.473C21.6648 136.327 22.6791 137.005 23.7954 137.467C24.9116 137.929 26.108 138.167 27.3163 138.167H72.6321C73.8403 138.167 75.0367 137.929 76.153 137.467C77.2693 137.005 78.2835 136.327 79.1379 135.473C79.9922 134.619 80.6699 133.605 81.1323 132.489C81.5947 131.373 81.8326 130.177 81.8326 128.97V12.4014C81.8326 11.1936 81.5947 9.99763 81.1323 8.88176C80.6699 7.76589 79.9922 6.75198 79.1379 5.89793C78.2835 5.04388 77.2693 4.36641 76.153 3.90421C75.0367 3.442 73.8403 3.2041 72.6321 3.2041Z" fill="white"/>
<path d="M99.6869 141.391H0.260961C0.191749 141.391 0.125373 141.364 0.0764334 141.315C0.0274938 141.266 0 141.2 0 141.13C0 141.061 0.0274938 140.995 0.0764334 140.946C0.125373 140.897 0.191749 140.87 0.260961 140.87H99.6869C99.7561 140.87 99.8225 140.897 99.8714 140.946C99.9204 140.995 99.9479 141.061 99.9479 141.13C99.9479 141.2 99.9204 141.266 99.8714 141.315C99.8225 141.364 99.7561 141.391 99.6869 141.391Z" fill="#CBCBCB"/>
<path d="M49.9732 90.1774C62.1439 90.1774 72.0103 80.3145 72.0103 68.148C72.0103 55.9815 62.1439 46.1185 49.9732 46.1185C37.8024 46.1185 27.936 55.9815 27.936 68.148C27.936 80.3145 37.8024 90.1774 49.9732 90.1774Z" fill="#4F0042"/>
<path d="M47.7904 76.5514C47.2946 76.5523 46.812 76.392 46.4154 76.0946L46.3908 76.0762L41.2118 72.1158C40.9719 71.932 40.7706 71.7027 40.6194 71.4411C40.4682 71.1795 40.3699 70.8907 40.3304 70.5912C40.2908 70.2917 40.3106 69.9873 40.3887 69.6954C40.4668 69.4035 40.6017 69.1299 40.7855 68.8901C40.9694 68.6503 41.1988 68.4491 41.4605 68.2979C41.7221 68.1467 42.011 68.0486 42.3107 68.009C42.6103 67.9694 42.9148 67.9893 43.2068 68.0673C43.4988 68.1454 43.7725 68.2802 44.0124 68.464L47.3669 71.0356L55.2939 60.6975C55.4777 60.4579 55.707 60.2567 55.9685 60.1056C56.2301 59.9545 56.5189 59.8563 56.8184 59.8168C57.1179 59.7773 57.4223 59.7971 57.7141 59.8751C58.006 59.9531 58.2796 60.0879 58.5194 60.2716L58.52 60.2721L58.4708 60.3404L58.5214 60.2721C59.0051 60.6438 59.3216 61.192 59.4013 61.7967C59.4811 62.4013 59.3177 63.0128 58.9469 63.4971L49.6231 75.6515C49.4073 75.9316 49.13 76.1582 48.8125 76.3138C48.4951 76.4694 48.146 76.5498 47.7924 76.5487L47.7904 76.5514Z" fill="white"/>
<path d="M181.171 143.557C181.439 143.123 181.754 142.721 182.112 142.358C182.259 142.205 182.414 142.061 182.574 141.921C183.549 141.054 184.737 140.462 186.016 140.206C187.295 139.95 188.619 140.04 189.852 140.465C191.085 140.89 192.183 141.636 193.032 142.626C193.881 143.616 194.451 144.814 194.684 146.097C195.76 142.118 192.958 138.199 190.141 135.189C187.323 132.179 184.102 128.878 184.118 124.754C184.126 122.46 185.249 120.413 186.944 118.895C186.996 118.849 187.049 118.803 187.102 118.759C189.151 117.003 191.787 116.085 194.484 116.187C199.494 116.455 203.869 119.821 206.907 123.814C211.797 130.239 213.94 139.257 210.516 146.57C207.505 153.002 201.083 156.822 194.529 159.892C193.613 160.321 192.7 160.737 191.788 161.14C191.782 161.142 191.776 161.146 191.77 161.148C191.726 161.167 191.682 161.186 191.641 161.206C191.453 161.289 191.265 161.372 191.078 161.454L191.164 161.511L191.434 161.685C191.34 161.628 191.248 161.574 191.155 161.517C191.127 161.5 191.097 161.484 191.07 161.467C187.851 159.536 184.587 157.493 182.363 154.478C180.056 151.349 179.129 146.865 181.171 143.557Z" fill="#F1F1F1"/>
<path d="M202.648 136.288C203.361 137.909 203.833 139.625 204.051 141.383C204.222 142.95 204.157 144.533 203.86 146.081C203.221 149.263 201.826 152.244 199.795 154.774C198.262 156.695 196.492 158.415 194.528 159.893C193.613 160.321 192.699 160.737 191.788 161.14C191.782 161.142 191.775 161.146 191.769 161.148C191.725 161.167 191.681 161.186 191.64 161.206C191.452 161.289 191.264 161.372 191.077 161.454L191.164 161.511L191.433 161.685C191.34 161.628 191.247 161.574 191.154 161.517C191.126 161.5 191.097 161.484 191.069 161.467C191.778 158.989 191.882 156.379 191.373 153.853C190.864 151.327 189.757 148.96 188.144 146.95C186.523 144.966 184.456 143.392 182.111 142.358C182.258 142.205 182.414 142.061 182.574 141.921C183.477 142.336 184.342 142.829 185.158 143.396C188.078 145.414 190.27 148.317 191.411 151.676C192.429 154.724 192.556 157.999 191.777 161.117C191.939 161.011 192.101 160.903 192.259 160.795C195.258 158.773 198.021 156.345 200.103 153.368C201.899 150.851 203.048 147.932 203.449 144.867C203.848 141.52 203.01 138.227 201.515 135.24C199.864 132.044 197.783 129.089 195.331 126.456C192.868 123.751 190.084 121.358 187.039 119.329C186.97 119.283 186.922 119.212 186.904 119.131C186.887 119.05 186.901 118.966 186.943 118.895C186.976 118.831 187.033 118.782 187.101 118.759C187.136 118.75 187.173 118.749 187.208 118.756C187.243 118.763 187.276 118.778 187.305 118.8C187.681 119.051 188.053 119.304 188.421 119.564C191.487 121.734 194.272 124.277 196.711 127.133C199.068 129.887 201.212 132.946 202.648 136.288Z" fill="white"/>
<path d="M137.016 10.229C139.6 10.229 141.696 8.13436 141.696 5.55052C141.696 2.96668 139.6 0.87207 137.016 0.87207C134.431 0.87207 132.335 2.96668 132.335 5.55052C132.335 8.13436 134.431 10.229 137.016 10.229Z" fill="#F1F1F1"/>
<path d="M195.21 72.8377C196.785 72.8377 198.063 71.5606 198.063 69.9853C198.063 68.41 196.785 67.1329 195.21 67.1329C193.634 67.1329 192.356 68.41 192.356 69.9853C192.356 71.5606 193.634 72.8377 195.21 72.8377Z" fill="#F1F1F1"/>
<path d="M111.702 80.6637C113.278 80.6637 114.556 79.3867 114.556 77.8113C114.556 76.236 113.278 74.959 111.702 74.959C110.126 74.959 108.849 76.236 108.849 77.8113C108.849 79.3867 110.126 80.6637 111.702 80.6637Z" fill="#F1F1F1"/>
<path d="M113.313 162H212.739C212.809 162 212.875 161.973 212.924 161.924C212.973 161.875 213 161.808 213 161.739C213 161.67 212.973 161.604 212.924 161.555C212.875 161.506 212.809 161.478 212.739 161.478H113.313C113.244 161.478 113.178 161.506 113.129 161.555C113.08 161.604 113.052 161.67 113.052 161.739C113.052 161.808 113.08 161.875 113.129 161.924C113.178 161.973 113.244 162 113.313 162Z" fill="#CBCBCB"/>
<path d="M201.767 25.209C201.898 24.2824 201.684 23.3402 201.166 22.5608C200.648 21.7814 199.862 21.219 198.957 20.9802C198.052 20.7414 197.091 20.8428 196.255 21.2651C195.42 21.6875 194.769 22.4015 194.425 23.2717L186.357 32.5181L188.724 39.1277L196.838 28.3237C197.368 28.4932 197.928 28.5447 198.479 28.4744C199.031 28.4041 199.56 28.2137 200.03 27.9168C200.5 27.6198 200.899 27.2235 201.199 26.7556C201.5 26.2878 201.693 25.7599 201.767 25.209Z" fill="#FFB7B7"/>
<path d="M168.323 61.1867L195.105 32.6139L191.492 26.8727L157.901 55.272L168.323 61.1867Z" fill="#3F3D56"/>
<path d="M162.346 43.8261C167.534 43.8261 171.74 39.6214 171.74 34.4348C171.74 29.2481 167.534 25.0435 162.346 25.0435C157.157 25.0435 152.951 29.2481 152.951 34.4348C152.951 39.6214 157.157 43.8261 162.346 43.8261Z" fill="#2F2E41"/>
<path d="M163.1 29.1294C165.122 27.0801 167.568 25.4988 170.267 24.4966C172 23.855 173.885 23.4586 175.696 23.823C177.508 24.1873 179.22 25.4398 179.726 27.2163C180.139 28.6689 179.712 30.2329 179.071 31.6003C178.43 32.9678 177.574 34.2358 177.055 35.6542C176.526 37.1015 176.367 38.658 176.592 40.1824C176.818 41.7068 177.42 43.1508 178.345 44.3833C179.271 45.6158 180.489 46.5978 181.89 47.2402C183.291 47.8826 184.831 48.165 186.369 48.0618C184.589 48.3003 182.949 49.1363 181.209 49.5813C179.47 50.0263 177.417 49.9961 176.124 48.7504C174.756 47.4323 174.729 45.2894 174.795 43.3915C174.894 40.5702 174.992 37.7489 175.09 34.9276C175.14 33.4887 175.183 32.0038 174.664 30.6609C174.145 29.318 172.911 28.142 171.471 28.1542C170.38 28.1635 169.414 28.8245 168.538 29.4763C167.663 30.1282 166.737 30.8237 165.649 30.9206C164.562 31.0176 163.321 30.2133 163.402 29.1252L163.1 29.1294Z" fill="#2F2E41"/>
<path d="M126.665 97.4929C125.763 97.7434 124.8 97.6544 123.96 97.2429C123.119 96.8314 122.459 96.1259 122.103 95.2601C121.748 94.3943 121.723 93.4284 122.033 92.5454C122.343 91.6623 122.966 90.9236 123.784 90.469L131.9 81.2646L138.764 82.7472L129.11 92.2006C129.347 92.7032 129.471 93.2517 129.474 93.8075C129.476 94.3632 129.356 94.9128 129.123 95.4173C128.89 95.9219 128.549 96.3693 128.124 96.7279C127.7 97.0865 127.201 97.3476 126.665 97.4929H126.665Z" fill="#FFB7B7"/>
<path d="M153.366 64.5404L133.138 89.923L126.972 87.0931L150.748 50.0901L153.366 64.5404Z" fill="#3F3D56"/>
<path d="M137.226 141.186L132.406 141.11L132.985 157.536H137.226L137.226 141.186Z" fill="#FFB7B7"/>
<path d="M138.307 156.152L129.956 156.151H129.955C128.544 156.152 127.19 156.712 126.192 157.71C125.194 158.707 124.633 160.061 124.633 161.471V161.644L138.306 161.645L138.307 156.152Z" fill="#2F2E41"/>
<path d="M169.145 136.829L163.879 140.209L174.413 152.878L177.982 150.588L169.145 136.829Z" fill="#FFB7B7"/>
<path d="M178.144 148.839L171.117 153.349L171.117 153.349C169.929 154.112 169.093 155.314 168.792 156.693C168.492 158.071 168.751 159.513 169.514 160.7L169.607 160.846L181.113 153.461L178.144 148.839Z" fill="#2F2E41"/>
<path d="M171.022 86.6714C171.022 86.6714 159.321 47.8208 155.561 47.2958C151.8 46.7708 145.741 57.2644 145.741 57.2644C137.885 67.2839 129.785 99.7394 129.785 99.7394C129.785 99.7394 143.289 100.584 153.16 105.834C163.031 111.084 174.681 105.568 174.681 105.568L171.022 86.6714Z" fill="#3F3D56"/>
<path opacity="0.1" d="M171.022 86.6714C171.022 86.6714 159.321 47.8207 155.561 47.2957C151.8 46.7707 147.28 57.3708 147.28 57.3708C143.366 73.5447 129.785 99.7394 129.785 99.7394C129.785 99.7394 143.289 100.584 153.16 105.834C163.031 111.084 174.681 105.568 174.681 105.568L171.022 86.6714Z" fill="black"/>
<path d="M161.422 75.0475V94.5696L163.721 122.849L175.203 144.24L169.723 148.153L154.065 127.805L147.872 107.601L138.147 152.327L130.84 151.805L135.914 89.7939L145.544 72.3391L161.422 75.0475Z" fill="#2F2E41"/>
<path d="M149.624 56.165C145.97 59.8172 149.363 63.7302 149.363 63.7302L145.188 73.1215L161.628 77.5563L167.373 51.8924L163.459 47.7185C155.63 47.4576 155.626 47.2954 155.626 47.2954C154.254 48.6373 149.624 56.165 149.624 56.165Z" fill="#4F0042"/>
<path d="M168.035 49.2338C167.288 48.6828 166.439 48.2854 165.538 48.0646C164.637 47.8438 163.7 47.8039 162.783 47.9474C161.866 48.0909 160.987 48.4148 160.196 48.9004C159.406 49.386 158.719 50.0236 158.176 50.7763C154.043 56.5291 150.222 65.8183 155.487 77.4037C163.942 96.0062 171.3 105.529 174.291 105.528C174.421 105.529 174.551 105.509 174.675 105.468C176.516 104.843 179.178 101.729 179.66 98.9846C179.833 98.0022 179.792 96.6339 178.617 95.6944C175.241 92.9954 169.181 84.5914 167.29 73.5299C166.246 67.4178 168.272 61.8503 170.155 58.256C170.951 56.7689 171.184 55.0449 170.811 53.4C170.438 51.7552 169.485 50.2998 168.126 49.3006L168.035 49.2338Z" fill="#3F3D56"/>
<path d="M162.828 42.9034C166.179 41.0721 167.411 36.8717 165.579 33.5216C163.747 30.1715 159.545 28.9403 156.194 30.7716C152.843 32.6029 151.611 36.8033 153.443 40.1534C155.275 43.5035 159.477 44.7347 162.828 42.9034Z" fill="#FFB7B7"/>
<path d="M149.785 36.3149H159.771L159.874 34.8817L160.386 36.3149H161.923L162.126 33.4744L163.141 36.3149H166.116V36.1742C166.114 34.1966 165.327 32.3008 163.928 30.9024C162.529 29.5041 160.633 28.7176 158.655 28.7153H157.247C155.269 28.7176 153.372 29.5041 151.973 30.9024C150.574 32.3007 149.788 34.1966 149.785 36.1742V36.3149Z" fill="#2F2E41"/>
<path d="M164.608 41.4663L168.869 40.0841V29.7391H160.82L161.019 29.938C163.792 32.7061 166.876 42.5268 164.608 41.4663Z" fill="#2F2E41"/>
</g>
<defs>
<clipPath id="clip0">
<rect width="213" height="162" fill="white"/>
</clipPath>
</defs>
</svg>
