<?xml version="1.0" encoding="utf-8"?>
<!-- Generator: Adobe Illustrator 25.0.1, SVG Export Plug-In . SVG Version: 6.00 Build 0)  -->
<svg version="1.1" id="Layer_1" xmlns="http://www.w3.org/2000/svg" xmlns:xlink="http://www.w3.org/1999/xlink" x="0px" y="0px"
	 viewBox="0 0 250 250" style="enable-background:new 0 0 250 250;" xml:space="preserve">
<style type="text/css">
	.st0{fill:#FFFFFF;}
</style>
<g>
	<path class="st0" d="M98.1,110.5c2.8-1.7,4.2-4.7,4.2-8.9c0-4.7-1.8-7.9-5.5-9.4c-3.2-1.1-7.3-1.6-12.2-1.6H62.2V113h25
		C91.7,113,95.3,112.1,98.1,110.5z"/>
	<path class="st0" d="M182.3,117.6c-3.2-2.7-7.1-4-11.8-4c-5.1,0-9.1,1.4-11.9,4.3c-2.8,2.9-4.6,6.7-5.3,11.6h34.3
		C187.3,124.3,185.5,120.4,182.3,117.6z"/>
	<path class="st0" d="M97.9,131.5c-2.4-1.1-5.9-1.7-10.3-1.7H62.2v27.1h25c4.5,0,8-0.6,10.4-1.8c4.5-2.2,6.8-6.4,6.8-12.7
		C104.4,137.1,102.2,133.5,97.9,131.5z"/>
	<path class="st0" d="M125,0C56,0,0,56,0,125s56,125,125,125s125-56,125-125S194,0,125,0z M148.2,77.7h44.1v12.6h-44.1V77.7z
		 M121.6,160.1c-1.9,3.2-4.4,5.8-7.3,8c-3.3,2.5-7.2,4.2-11.6,5.1c-4.5,0.9-9.3,1.4-14.6,1.4H41.7V72.9h49.8
		c12.6,0.2,21.5,3.8,26.7,10.8c3.1,4.3,4.7,9.5,4.7,15.5c0,6.2-1.6,11.2-4.8,15c-1.8,2.1-4.4,4-7.9,5.8c5.3,1.9,9.2,4.9,11.9,9
		c2.7,4.1,4,9,4,14.9C126.1,149.9,124.6,155.3,121.6,160.1z M208.3,142.5h-55.5c0.3,7.5,3,12.8,8,15.8c3,1.9,6.7,2.8,11,2.8
		c4.5,0,8.2-1.2,11-3.4c1.6-1.2,2.9-3,4.1-5.2h20.3c-0.5,4.4-3,9-7.4,13.6c-6.8,7.3-16.4,11-28.7,11c-10.1,0-19.1-3.1-26.8-9.2
		c-7.8-6.2-11.6-16.2-11.6-30.1c0-13,3.5-23,10.5-30c7-6.9,16.1-10.4,27.2-10.4c6.6,0,12.6,1.2,17.9,3.5c5.3,2.3,9.7,6.1,13.2,11.1
		c3.1,4.5,5.2,9.6,6.1,15.5C208.2,131,208.4,136,208.3,142.5z"/>
</g>
</svg>
