<?xml version="1.0" encoding="utf-8"?>
<!-- Generator: Adobe Illustrator 25.0.1, SVG Export Plug-In . SVG Version: 6.00 Build 0)  -->
<svg version="1.1" id="Layer_1" xmlns="http://www.w3.org/2000/svg" xmlns:xlink="http://www.w3.org/1999/xlink" x="0px" y="0px"
	 viewBox="0 0 250 250" style="enable-background:new 0 0 250 250;" xml:space="preserve">
<style type="text/css">
	.st0{fill:#FFFFFF;}
</style>
<path class="st0" d="M125,0C56,0,0,56,0,125s56,125,125,125s125-56,125-125S194,0,125,0z M85.9,195.3H54.7V85.9h31.2V195.3z
	 M70.3,78.1c-8.6,0-15.6-7-15.6-15.6s7-15.6,15.6-15.6s15.6,7,15.6,15.6S78.9,78.1,70.3,78.1z M195.3,195.3h-31.2v-62.5
	c0-10.2-5.7-15.6-15.6-15.6c-10.1,0-15.6,5.5-15.6,15.6v62.5h-31.2V85.9h31.2v15.6c1.8-7.7,5.5-15.6,27.3-15.6
	c31.1,0,35.2,23.4,35.2,54.7V195.3z"/>
</svg>
