<svg id="Layer_1" data-name="Layer 1" xmlns="http://www.w3.org/2000/svg" xmlns:xlink="http://www.w3.org/1999/xlink" viewBox="0 0 556 726"><defs><style>.cls-1{stroke:#1b5a73;stroke-miterlimit:10;fill:url(#radial-gradient);}.cls-2{fill:#db9889;}.cls-3{fill:#29304a;}.cls-4{fill:#1f161f;}.cls-5{fill:#f2a88f;}.cls-6{fill:#e69e89;}.cls-7{fill:#ca6c66;}.cls-8{fill:#93504d;}.cls-9{fill:#d9d5cf;}.cls-10{fill:#22100a;}.cls-11{fill:#301812;}.cls-12{fill:#ec5723;}.cls-13{fill:#ebe863;}.cls-14{fill:#13a652;}.cls-15{fill:#5a276f;}.cls-16{fill:#164520;}.cls-17{fill:#060505;}</style><radialGradient id="radial-gradient" cx="278" cy="322.25" r="277.89" gradientUnits="userSpaceOnUse"><stop offset="0" stop-color="#0688a6"/><stop offset="0.27" stop-color="#0884a1"/><stop offset="0.57" stop-color="#0d7894"/><stop offset="0.88" stop-color="#17637d"/><stop offset="1" stop-color="#1b5a73"/></radialGradient></defs><circle class="cls-1" cx="278" cy="322.25" r="277.89"/><path class="cls-2" d="M227.58,342.72l-13.15,80.57,34.46,32.89L326.43,464l54.83-39.17-21.93-43.07-25.85-7,7-36.82S310,356.71,295.88,357.5s-36,14.09-40.72,10.18,6.26,3.91-4.7-3.92S227.58,342.72,227.58,342.72Z"/><path class="cls-3" d="M275,725.82S453.66,541.44,461.8,533.34c26.23-26.08,46.86-50.81,60.58-77.64-3.84-5.72-4.23-6.05-10-12.05s-10.76-11.21-22.25-23.5c-20.13-10.22-35.17-19.07-47-24.28L404,378.64l-31.33-9.4-39.16,5.49L317,402.92l.78,15.67-.78,38-39.16,1.57L243.41,446l-36-37.59h0l-14.1-49.35H180l-51.7,14.88s-35.09,10.4-38.38,11-17.22,8.62-23.49,13.31-28.56,25.2-31.59,30.29-8.23,11.1-7,14.81c1.58,4.76,12.26,22.27,15.54,28,10.9,19,21.26,29.59,46.86,58.92C122.16,566.84,275,725.82,275,725.82Z"/><path class="cls-4" d="M359.54,638.55c-6-2.13-13.05,13.28-13.05,13.28L279,685.1s49.54-16.23,53.45-18.58"/><path class="cls-4" d="M185.91,598.68c-5.94-2.13-16.14-.49-23.68-9.89l-35.16-43.87s25.29,53.33,28,55.22Z"/><path class="cls-4" d="M394.93,590.57c-5.94-2.13-11.79-4.79-18.18-.43-10,6.8-33.87,2.38-33.87,2.38s8.13,7.62,29.56,7.62Z"/><path class="cls-4" d="M69.53,414.67l21.15,5.48s11.74,4.7,17.23,13.32,11.75,12.53,20.36,18,28.2,35.25,28.2,35.25-24.28-14.88-24.28-18.8-9.4-16.45-19.19-14.1-18.41-10.18-21.54-15.66-21.93-14-21.93-14Z"/><path class="cls-4" d="M401.37,422.36s57.61-19.25,52.74-20.82-25.92-16.11-30.8-16.89-15.44-3.92-15.44-3.92Z"/><path class="cls-4" d="M465.85,407.62l-67.36,39.95s49.34-3.14,53.26-5.49l3.91-2.34S469,431.12,476,431.9s20.36,8.62,18.8,15.67-11,51.69-10.19,54.82l.79,3.14,12.53-49s1.57-23.88,0-27.8-9.53-11.23-18.28-14.36A101.81,101.81,0,0,1,465.85,407.62Z"/><path class="cls-4" d="M80.49,390c5.88-4.31,9.4-5.09,14.3-6.66,5.82-1.86,32.7-9,32.7-9l35.39-10.46,11.91-5.63,2.83,41.93-12.54,41.51S134.54,419,128.27,415.06s-19.58-9.4-25.06-7.05S70.83,397.08,80.49,390Z"/><path class="cls-4" d="M215.58,417s33.92,40,78.26,36.08,65.49-12.27,69.4-18.27l3.92-6,11.75-54.83,19.58,4.7s-7.05,54.83-11.75,61.88-52.48,36.81-78.32,33.68-71.28-15.67-76.76-18-2.82,3.48-5.48-2.35c-7.88-17.21-22.72-33.68-22.72-33.68Z"/><path class="cls-5" d="M382,232.57c-14.1,83.45-48.7,144.12-99.39,144.12-40.74,0-72.4-41-84.39-98.66-2.93-14.09-7.39-29.83-7.39-45.46C190.87,153,232,88.45,282.65,88.45c44.35,0,96.31,41.34,104.87,107C388.75,204.84,383.7,222.75,382,232.57Z"/><path class="cls-6" d="M275.78,255.67s4.18-32.5,0-40.27-11-18-19-19.66S220,192.52,217,193.65s-22.73.25-23,5.37-3.19,77.28-3.19,77.28L206.33,323l11.95,13.84s-.72-21.93-3.85-43.6-6.85-28.85-6.76-33.42-9.1-20.62,1.44-22.71,34-1.3,37.43-4.57,6.74-11,6.74-11,6.28-9.43,11.46-7.66,8.82,13,9.52,19.62S275.78,255.67,275.78,255.67Z"/><path class="cls-6" d="M312.52,203.34c-4.08,2.8-7.76,19.18-7.5,21s-3,3.06.7,11.16,2.15-2.31,1.89,2.38,6.08,18,3.55,8.39-4.14-3.9-2.22-5.13,5-8.19,14.1-3.49,17.17,9.4,23.07,6l5.91-3.4s6.26-17.8,11.22-17.91,12.53,2.22,13.32,3.41-.77-4.07-6.9-9.9-29.39-18.58-35.14-18.24-17.59,5.63-17.59,5.63"/><path class="cls-6" d="M267.17,261.16s-9.66,11.21-7.31,17.88,4.11,11.39,7.31,11.1c1.56,0,7.62-3.14,10.47,0a12.69,12.69,0,0,0,7.54,4.17c1,0-4.44-2.61-5.22-4.17s-3.92-4.83-6.27-4.18-4.28,1.44-4.77,1.22-2.86-1.74-3.26-3.18-.33-5.6,3-6.9c3.14-1.21,2.72-6.57,4.74-9,2.48-3,4.09-33.23,4.09-33.23Z"/><path class="cls-6" d="M203.46,265.51s18.11,60.66,30.79,74.36C219.52,299.93,203.46,265.51,203.46,265.51Z"/><path class="cls-6" d="M244.58,293.73s-18.8-8.11-15.66,9.23,8.67,27.51,8.67,27.51S220.69,289.48,244.58,293.73Z"/><path class="cls-6" d="M336.6,302.34s1.14,8.79-5.89,19.42S316.93,343,316.93,343s19-10.26,22.12-14.29,27.68-52.24,27.68-52.24-22.29,34.65-24.9,38.68Z"/><path class="cls-6" d="M293.52,350.82c1.73,1.95-10.3,10.59-22.7,0-1.31,0,4.53,2.86,10.33,2.86"/><path class="cls-7" d="M242.75,305.41a30.22,30.22,0,0,1,4.12,6.07c8.09,15.34,36.46,52.28,81.78,3.31-20.1,3.13-23.63,2-26.76.78s-10.43-2.74-13.05-.78-5.74.79-7.91-.25-6.91-.75-10.76-.34S240.93,303.54,242.75,305.41Z"/><path class="cls-8" d="M242.75,305.41a84.6,84.6,0,0,0,11,9.65c13.85,10.39,38.13,18,65.83,4.61-16.84,7.2-18.57,5.62-25.08,5.89-20.15.83-34.6-4.22-42.18-12.45Z"/><path class="cls-8" d="M242.75,305.41a84.6,84.6,0,0,0,11,9.65c13.85,10.39,38.13,18,65.83,4.61-16.84,7.2-18.57,5.62-25.08,5.89-20.15.83-34.6-4.22-42.18-12.45Z"/><path class="cls-9" d="M258.75,318.42c11,6.7,26.16,10.81,44.23,7l1.92-.42c-3.88.51-7.23.45-10.44.59-15.79.65-28.06-2.32-36.28-7.59Z"/><path class="cls-10" d="M214.43,322.57s26.63,39.72,24.28,61-7.83,49.58-9.4,70S221,485.05,234.53,500s.36,6.29-8.3,0-11-13.38-11-13.38l-11-33.05s-12.54-.79-10.19,16.52-7.05,22,7.84,27.55-19.59,2.36-29-13.38-19.58-18.1-15.67-40.92l3.92-22.83s14.16-6.76,14.88-26c.39-10.41-4.05-14.57-9.79-13.71-2.87.43,3.91-13.86,3.91-13.86a232.94,232.94,0,0,1,2.75-27.52c2.35-14.17.78-63,.78-63V209.62l-.1-30.11,7.15-21.83,51.69-59.8,58-4.73,42.3,4.73,25.84,9.44,18.8,14.16L404,150.6l-1.57,25.18L405.54,190s-6.66,33.71,4.7,88.78c2.42,11.77-6.27,48.15-6.27,48.15s13.44,38.56,9.46,51.15-13.38,36.2-7.89,44.07L411,430a102.48,102.48,0,0,1,7.83,31.48c1.57,18.1.79,41.73-10.18,46.83l-11-21.65s.53,32,0,25.18S394.57,500,389.87,489l-4.7-11h0s-11,13.38-17.23,15.74,7.83-9.44-.78-20.46-25.07-22-30.55-29.12,6.27-26.75,6.27-26.75-18.8-8.66-20.37,12.59-5.48,26.75,6.27,37,25.06,24.4,25.06,24.4-18,2.36-26.63-7.08l-8.61-9.45-7.83-36.2s-3.14-41.7,5.48-49.57,5.05-7.66,11.32-10.81S339,345.7,339,345.7l12-17.87S361.7,305.89,364,299c12.23-36.25,13.05-39.88,17.81-65.17,2.45-13,3.52-31.34,4.31-41.86a16.1,16.1,0,0,0-1.74-8.67l-18.82-2.81.79-25.18s-8.62,9.45-4.7,17.32-12.54-9.45-11.75-14.17-9.4,11.8-9.4,11.8l-55.2-1.36-40.36-1-1.56-15.74L234,168.7s-18.8-6.29-25.07-3.15-15.74,72.89-13.21,95.53C199.09,291.13,214.43,322.57,214.43,322.57Z"/><path class="cls-11" d="M199.94,337.91s13.33,37.66,14.49,58.36-12.14,16.64-11,23.88c0,0,8.88-4.5,9.92-5.48s5.75-9.59,4.77-16.25-3.53-27.41-5.88-32.7S199.94,337.91,199.94,337.91Z"/><path class="cls-11" d="M241.06,120.38s13.48,34.45,13.48,34.26,4.16-4.26,0-17.13-5.82-20.86-5.82-20.86Z"/><path class="cls-6" d="M314.88,280a13.74,13.74,0,0,1-3.33,9.2,5.12,5.12,0,0,1-2.3,1.27c-1.71.57-5.53-.68-9.06-.1s-2.74,2-4.89,3.4c0,0,4.89-3.4,7.63-1.83s9.4-.78,11.36-3.72,2.06-9.94,1.66-10.91-7.73-20.13-7.73-20.13S314.8,277.64,314.88,280Z"/><path class="cls-11" d="M178,180.51s-13.91,8-12.14,47,7.9,53.06,2.77,62.46-21.57,47-24.51,59.33-5.28,18.41,0,33.29,17,34.44,17,34.44l15.56,17.25s-6.36-23.82-5.18-26.56,3-9.46,3.76-11.27c1.16-2.78,1.34-2.39,3.87-6.62,1.57-2.61-.65-7.05-.65-7.05l1.24.79s-8.22-16.06-6.07-40,3.13-15.47,1.57-51.49-1.77-52.68-.4-56.2-1.56-39,.59-44.84A44.77,44.77,0,0,0,178,180.51"/><path class="cls-11" d="M397,238.67,400.45,268a109.16,109.16,0,0,1,1,13.57c-.17,4.7-7.05,41.51-6.53,44.12s2.88,9,2.88,9L403,299.82l3.48-16.65a121.22,121.22,0,0,0,.43-22.27C406,248.67,404,228.55,404,228.55l-7,10.12"/><path class="cls-11" d="M374.21,333.22s2.35,29-5.49,45.81-20.1,51.08-17.3,56.52c4.44,8.61,12.93,15.77,26.7,21,29.52,11.28,30.55,51.54,30.55,51.54s2.35-39.4-3.92-50-43.32-14.52-40.46-30.41c5.48-30.55,13.31-36.82,12.53-56.4S374.21,333.22,374.21,333.22Z"/><path class="cls-12" d="M186,86.5s13.84-47.24,48-67.87S274.66-.18,286.84.6s27.84,8.62,32,10.71,21.67,11.48,24.8,14.88,17.23,25.32,17.23,25.32Z"/><path class="cls-13" d="M168.64,131S187,56,219.91,41.85,284.14,16,311.55,19.14s43.86,21.15,48.56,26.63S381.26,81,381.26,81L301,48.9,217.2,81l-48.56,50h0"/><path class="cls-14" d="M393,110S386,83.36,376.56,72.4s-44.65-39.95-78.72-37.6-70.88,13.11-83.41,25S179.18,94.33,180.75,121,281.39,82.58,281.39,82.58Z"/><path class="cls-15" d="M165.87,227.48s-7.05-36-4.7-61.88,8.61-50.12,36-70.49S255.16,53.6,301,61.43s70.1,18.8,80.29,29,28.19,25.07,25.84,32.9,4.06,22.71,4.06,29.76.64,22.71,1.43,25.06,1,26.64,1,26.64L404,229.44s-3.92-29.37-11.75-52.87-5.48-12.53-20.36-29-58.9-29.37-85.05-29-44.19,3.13-63,20.36-43.08,35.13-51.7,49.35C168.46,194.38,165.87,227.48,165.87,227.48Z"/><path class="cls-10" d="M269.92,202.29l-7.83-13.57v3.33L259,186.63v4.18l-6.27-8.07,1.05,5.19s-6.27-4.12-12-5.19-4.18-1.07-5.75-1.07A112.94,112.94,0,0,0,219.53,184a20.31,20.31,0,0,0-7.26,3,36,36,0,0,0-4.22,3c-1.31,1.31-5.49,6.27-5.49,6.27l11.49-.78,6.26-4.12s21.78-1.22,24,.66,12.48,4.41,12.48,4.41l13.1,5.83"/><path class="cls-10" d="M312.52,203.34l6.09-6.92,2.6-3,3.52-5.3-.14,4.17,7-7.83-1.3,5.16s6.82-3.89,13-4.75,4.48-.91,6.15-.85a154.26,154.26,0,0,1,17.42,2.95,31.47,31.47,0,0,1,9.22,4.32,34.24,34.24,0,0,1,4.68,4.2c1.35,1.35,3.73,4.38,3.73,4.38l-12.2-1.21c3.89.38-.21-4.81-9.54-5s-11.36-.78-23.86,2.42A78.12,78.12,0,0,1,326.66,198l-14.14,5.35"/><path class="cls-11" d="M402.66,203.72c-1-.52-8.09-2.61-22.71-6.95s-32.89-4.41-50.91-1.14c-4.43.8-19.32,6.78-24.28,8.09-3.92-2.61-27.41-1.31-27.41-1.31a35.73,35.73,0,0,1-6.27-2.34c-15.86-9.27-31.59-9.4-40.73-10.19s-55.6,6.61-55.6,6.61v7.23a32.46,32.46,0,0,1,5,2.87c1.63,1.31,4.37,2.87,4.89,8.88S191.19,245,200.59,257s31.33,12,49.08,7.31,27.66-28.08,30.42-35.77c2.44-6.8,2.15-7.89,1.61-9.29-1.14-2.92-2.07-4.87.61-6.89,1.37-1,11.72-2.07,16-.23,3.74,1.6,1.21,6.28.87,8.65-.94,6.56,8.42,24,8.42,24a56.6,56.6,0,0,0,25.07,24c18,8.88,41.25-3.13,48.56-9.4s15.4-34.2,16.18-38.38,6-9.4,6.79-11.75S403.71,204.24,402.66,203.72ZM264.82,247.06c-22.72,26.24-48.83,13.31-57,8.22C183.1,231,189.36,202,199.55,198.89c50.12-11.36,65.79,5.87,65.79,5.87C285.7,218.47,264.82,247.06,264.82,247.06Zm118,0c-9.4,11.75-29.37,30.15-62.26,8.22-5.88-6.26-17.63-23.49-11-43.47,0,0,17.87-25.76,71.67-7.83C393,207.9,392.22,235.31,382.82,247.06Z"/><path class="cls-9" d="M264.2,220.17s-24.27-35.06-50.11-6.12C231.74,224.39,231.11,229.47,264.2,220.17Z"/><path class="cls-16" d="M253.92,213.71a13.34,13.34,0,0,0-.87-4.74c-5.54-4.06-12.78-7.36-20.82-6.08a13.52,13.52,0,0,0-.67,21.1c4.34,1.39,9.39,1.49,17.79-.15A13.5,13.5,0,0,0,253.92,213.71Z"/><path class="cls-17" d="M264.2,220.17s-21-33-46.72-9.53c-.55.5-1.11,1-1.66,1.6s-4.26,3.43-4.84,4.07C211,216.31,241.9,192.84,264.2,220.17Z"/><circle class="cls-17" cx="240.44" cy="215.41" r="3.97"/><circle class="cls-9" cx="239.71" cy="213.73" r="1.56"/><path class="cls-9" d="M319,220.47s25.25-28,47.7-3.32C349.52,226.13,349.85,231,319,220.47Z"/><path class="cls-16" d="M329.08,214.82a12.79,12.79,0,0,1,1.06-4.48c5.45-3.6,12.46-6.39,20-4.75a13,13,0,0,1-.43,20.16c-4.18,1.11-9,1-16.82-1A13,13,0,0,1,329.08,214.82Z"/><path class="cls-17" d="M319,220.47s21.59-30.5,44.67-6.75c.5.51,1,1.05,1.49,1.61s3.86,3.49,4.37,4.13C369.56,219.46,341.51,195.5,319,220.47Z"/><ellipse class="cls-17" cx="341.79" cy="217.19" rx="3.8" ry="3.76" transform="translate(115.7 553.16) rotate(-88.5)"/><ellipse class="cls-9" cx="340.38" cy="216.57" rx="1.49" ry="1.48" transform="translate(114.94 551.15) rotate(-88.5)"/></svg>