<svg id="Layer_1" data-name="Layer 1" xmlns="http://www.w3.org/2000/svg" xmlns:xlink="http://www.w3.org/1999/xlink" viewBox="0 0 296.49 387.14"><defs><style>.cls-1{stroke:#1b5a73;stroke-miterlimit:10;fill:url(#radial-gradient);}.cls-2{fill:#db9889;}.cls-3{fill:#29304a;}.cls-4{fill:#1f161f;}.cls-5{fill:#f2a88f;}.cls-6{fill:#e69e89;}.cls-7{fill:#ca6c66;}.cls-8{fill:#93504d;}.cls-9{fill:#d9d5cf;}.cls-10{fill:#22100a;}.cls-11{fill:#301812;}.cls-12{fill:#ec5723;}.cls-13{fill:#ebe863;}.cls-14{fill:#13a652;}.cls-15{fill:#5a276f;}.cls-16{fill:#164520;}.cls-17{fill:#060505;}</style><radialGradient id="radial-gradient" cx="148.3" cy="171.93" r="148.19" gradientUnits="userSpaceOnUse"><stop offset="0" stop-color="#0688a6"/><stop offset="0.27" stop-color="#0884a1"/><stop offset="0.57" stop-color="#0d7894"/><stop offset="0.88" stop-color="#17637d"/><stop offset="1" stop-color="#1b5a73"/></radialGradient></defs><circle class="cls-1" cx="148.3" cy="171.93" r="148.19"/><path class="cls-2" d="M121.41,182.84l-7,43,18.38,17.54,41.35,4.18,29.23-20.89-11.69-23-13.78-3.76,3.75-19.63s-16.28,10-23.8,10.44-19.22,7.52-21.72,5.43,3.34,2.09-2.51-2.08A92.82,92.82,0,0,1,121.41,182.84Z"/><path class="cls-3" d="M146.67,387.14S242,288.82,246.32,284.5c14-13.91,25-27.1,32.3-41.41a33.66,33.66,0,0,0-5.33-6.42c-3.08-3.2-5.74-6-11.87-12.53-10.73-5.45-18.75-10.18-25.06-12.95L215.48,202l-16.71-5-20.88,2.92-8.78,15,.42,8.35-.42,20.26-20.88.83-18.38-6.47-19.21-20h0l-7.52-26.31H96l-27.56,7.93S49.74,205,48,205.34s-9.19,4.6-12.53,7.1-15.23,13.44-16.85,16.15-4.39,5.92-3.73,7.9c.84,2.54,6.53,11.88,8.28,14.92,5.81,10.11,11.34,15.77,25,31.42C65.2,302.36,146.67,387.14,146.67,387.14Z"/><path class="cls-4" d="M191.78,340.6c-3.17-1.14-6.95,7.08-6.95,7.08l-36,17.75s26.42-8.66,28.51-9.91"/><path class="cls-4" d="M99.19,319.34c-3.17-1.14-8.61-.26-12.63-5.28L67.81,290.67s13.49,28.44,14.94,29.45Z"/><path class="cls-4" d="M210.66,315c-3.17-1.13-6.29-2.55-9.7-.22-5.31,3.62-18.06,1.27-18.06,1.27s4.34,4.06,15.76,4.06Z"/><path class="cls-4" d="M37.13,221.21l11.28,2.93s6.26,2.5,9.19,7.1,6.26,6.68,10.86,9.6,15,18.8,15,18.8-12.95-7.94-12.95-10-5-8.78-10.23-7.52-9.81-5.43-11.49-8.36-11.69-7.45-11.69-7.45Z"/><path class="cls-4" d="M214.09,225.31s30.72-10.26,28.12-11.1-13.82-8.59-16.42-9-8.23-2.09-8.23-2.09Z"/><path class="cls-4" d="M248.47,217.45l-35.92,21.31s26.32-1.67,28.4-2.93l2.09-1.25s7.1-4.6,10.86-4.18,10.86,4.6,10,8.36-5.85,27.56-5.43,29.23l.41,1.67,6.69-26.1s.83-12.74,0-14.83-5.09-6-9.75-7.66A53.63,53.63,0,0,1,248.47,217.45Z"/><path class="cls-4" d="M43,208.06a21.18,21.18,0,0,1,7.62-3.55c3.11-1,17.44-4.81,17.44-4.81l18.87-5.57,6.35-3,1.51,22.36-6.68,22.13s-16.29-12.11-19.63-14.2-10.45-5-13.37-3.76S37.83,211.84,43,208.06Z"/><path class="cls-4" d="M115,222.44s18.09,21.33,41.74,19.24,34.92-6.54,37-9.74l2.09-3.21,6.26-29.24L212.55,202s-3.76,29.24-6.26,33-28,19.63-41.77,18-38-8.36-40.93-9.61-1.5,1.86-2.93-1.25c-4.2-9.18-12.11-18-12.11-18Z"/><path class="cls-5" d="M203.78,124.11c-7.52,44.5-26,76.85-53,76.85-21.72,0-38.61-21.85-45-52.61-1.57-7.52-4-15.91-4-24.24,0-42.45,21.92-76.86,49-76.86,23.65,0,51.36,22,55.92,57.06C207.36,109.32,204.67,118.87,203.78,124.11Z"/><path class="cls-6" d="M147.12,136.43s2.22-17.34,0-21.48-5.89-9.59-10.11-10.48-19.63-1.72-21.22-1.12-12.12.13-12.25,2.87-1.71,41.21-1.71,41.21l8.25,24.92,6.37,7.38s-.38-11.7-2-23.26-3.65-15.38-3.6-17.82-4.86-11,.76-12.11,18.15-.69,20-2.43,3.6-5.9,3.6-5.9,3.35-5,6.11-4.08,4.7,6.93,5.07,10.46S147.12,136.43,147.12,136.43Z"/><path class="cls-6" d="M166.71,108.52c-2.18,1.49-4.14,10.23-4,11.2s-1.59,1.64.37,6,1.15-1.23,1,1.27,3.24,9.62,1.89,4.47-2.2-2.07-1.18-2.73,2.64-4.37,7.52-1.86,9.15,5,12.3,3.2l3.15-1.81s3.34-9.49,6-9.55,6.68,1.19,7.1,1.82-.41-2.17-3.68-5.28-15.68-9.91-18.74-9.72-9.38,3-9.38,3"/><path class="cls-6" d="M142.52,139.35s-5.15,6-3.9,9.53,2.2,6.08,3.9,5.92c.84,0,4.07-1.67,5.59,0a6.76,6.76,0,0,0,4,2.23c.56,0-2.37-1.39-2.79-2.23s-2.08-2.57-3.34-2.22a9.73,9.73,0,0,1-2.54.64c-.26-.12-1.53-.92-1.74-1.69s-.18-3,1.62-3.68,1.45-3.5,2.52-4.81c1.33-1.6,2.18-17.72,2.18-17.72Z"/><path class="cls-6" d="M108.55,141.67S118.21,174,125,181.33C117.11,160,108.55,141.67,108.55,141.67Z"/><path class="cls-6" d="M130.48,156.72s-10-4.33-8.35,4.92a53.25,53.25,0,0,0,4.62,14.67S117.74,154.46,130.48,156.72Z"/><path class="cls-6" d="M179.55,161.31s.61,4.69-3.14,10.36S169.06,183,169.06,183s10.12-5.47,11.79-7.62,14.77-27.86,14.77-27.86l-13.28,20.63Z"/><path class="cls-6" d="M156.57,187.16c.93,1-5.49,5.65-12.1,0-.69,0,2.42,1.53,5.51,1.53"/><path class="cls-7" d="M129.5,163a16.3,16.3,0,0,1,2.2,3.24c4.31,8.18,19.44,27.87,43.61,1.76-10.72,1.67-12.6,1-14.27.42s-5.56-1.47-7-.42-3.06.42-4.22-.13-3.68-.4-5.74-.18S128.53,162,129.5,163Z"/><path class="cls-8" d="M129.5,163a45.48,45.48,0,0,0,5.85,5.15c7.38,5.53,20.33,9.57,35.1,2.45-9,3.84-9.9,3-13.37,3.14-10.75.44-18.46-2.25-22.49-6.63Z"/><path class="cls-8" d="M129.5,163a45.48,45.48,0,0,0,5.85,5.15c7.38,5.53,20.33,9.57,35.1,2.45-9,3.84-9.9,3-13.37,3.14-10.75.44-18.46-2.25-22.49-6.63Z"/><path class="cls-9" d="M138,169.89a31.87,31.87,0,0,0,23.58,3.71l1-.22c-2.06.27-3.85.24-5.56.31-8.42.35-15-1.24-19.35-4Z"/><path class="cls-10" d="M114.4,172.1s14.2,21.18,12.95,32.51-4.18,26.44-5,37.35-4.45,16.79,2.79,24.76.19,3.36-4.43,0a16.26,16.26,0,0,1-5.87-7.13L109,242s-6.68-.42-5.43,8.81-3.76,11.75,4.18,14.69-10.45,1.26-15.46-7.13-10.44-9.66-8.35-21.83L86,224.33s7.55-3.6,7.93-13.84c.21-5.55-2.15-7.77-5.22-7.31-1.53.23,2.09-7.39,2.09-7.39a124.17,124.17,0,0,1,1.46-14.68c1.26-7.55.42-33.57.42-33.57V111.87l-.05-16.06,3.81-11.64L124,52.28l30.9-2.52,22.56,2.52,13.78,5,10,7.56,14.21,15.52-.84,13.43,1.67,7.56s-3.55,18,2.51,47.34c1.29,6.28-3.34,25.68-3.34,25.68s7.16,20.56,5,27.27-7.13,19.31-4.21,23.5l2.92,4.2a54.46,54.46,0,0,1,4.18,16.79c.84,9.65.42,22.25-5.43,25l-5.85-11.54s.28,17,0,13.42-1.67-6.29-4.17-12.17L205.45,255h0s-5.85,7.13-9.19,8.39,4.18-5-.41-10.91-13.37-11.75-16.29-15.53,3.34-14.26,3.34-14.26-10-4.62-10.86,6.71-2.93,14.27,3.34,19.72,13.36,13,13.36,13-9.6,1.26-14.2-3.77l-4.59-5L165.77,234s-1.67-22.24,2.93-26.44,2.69-4.08,6-5.76,6.12-17.36,6.12-17.36l6.39-9.53s5.7-11.69,6.93-15.36c6.53-19.34,7-21.27,9.51-34.76,1.3-6.92,1.87-16.71,2.29-22.32a8.54,8.54,0,0,0-.92-4.62l-10-1.5.42-13.43s-4.6,5-2.51,9.23-6.68-5-6.26-7.55-5,6.3-5,6.3l-29.43-.73-21.52-.53-.84-8.4-5,8.82s-10-3.36-13.36-1.68-8.4,38.86-7,50.94C106.22,155.33,114.4,172.1,114.4,172.1Z"/><path class="cls-11" d="M106.67,180.28s7.11,20.08,7.73,31.12-6.47,8.87-5.85,12.74c0,0,4.74-2.4,5.29-2.93s3.07-5.11,2.54-8.66-1.88-14.62-3.13-17.44Z"/><path class="cls-11" d="M128.6,64.28s7.19,18.37,7.19,18.27,2.22-2.27,0-9.14-3.1-11.12-3.1-11.12Z"/><path class="cls-6" d="M168,149.37a7.29,7.29,0,0,1-1.78,4.91A2.68,2.68,0,0,1,165,155c-.91.31-3-.36-4.83-.05s-1.46,1-2.61,1.81c0,0,2.61-1.81,4.08-1s5-.41,6.05-2,1.1-5.3.89-5.82-4.12-10.73-4.12-10.73S167.92,148.14,168,149.37Z"/><path class="cls-11" d="M95,96.34s-7.42,4.27-6.48,25,4.22,28.3,1.48,33.31-11.5,25.06-13.07,31.64-2.82,9.81,0,17.75S86,222.45,86,222.45l8.3,9.21S90.91,219,91.53,217.49s1.6-5,2-6A22.65,22.65,0,0,1,95.6,208c.84-1.39-.34-3.76-.34-3.76l.66.42s-4.39-8.56-3.24-21.3,1.67-8.25.84-27.46-.94-28.09-.21-30-.84-20.78.31-23.91A23.94,23.94,0,0,0,95,96.34"/><path class="cls-11" d="M211.75,127.36,213.6,143a58.68,58.68,0,0,1,.55,7.24c-.09,2.51-3.76,22.14-3.48,23.53s1.53,4.8,1.53,4.8L214.94,160l1.86-8.88a64.16,64.16,0,0,0,.22-11.88c-.48-6.52-1.56-17.25-1.56-17.25l-3.71,5.4"/><path class="cls-11" d="M199.6,177.78s1.26,15.45-2.92,24.43-10.72,27.24-9.23,30.14c2.37,4.59,6.9,8.41,14.24,11.21C217.43,249.57,218,271,218,271s1.25-21-2.09-26.65-23.1-7.74-21.58-16.21c2.93-16.29,7.1-19.64,6.69-30.08S199.6,177.78,199.6,177.78Z"/><path class="cls-12" d="M99.22,46.21S106.6,21,124.84,10,146.52,0,153,.41,167.86,5,170.09,6.11s11.55,6.13,13.22,7.94,9.19,13.5,9.19,13.5Z"/><path class="cls-13" d="M90,69.94s9.8-40,27.34-47.54,34.25-13.78,48.87-12.11,23.39,11.28,25.9,14.2,11.27,18.8,11.27,18.8L160.55,26.16,115.88,43.29,90,69.94h0"/><path class="cls-14" d="M209.63,58.74s-3.76-14.2-8.77-20.05-23.81-21.3-42-20-37.8,7-44.48,13.31-18.8,18.44-18,32.64,53.67-20.47,53.67-20.47Z"/><path class="cls-15" d="M88.5,121.39s-3.76-19.21-2.5-33,4.59-26.73,19.21-37.59,30.91-22.13,55.34-18,37.38,10,42.81,15.46,15,13.36,13.79,17.54,2.16,12.11,2.16,15.87.34,12.11.76,13.37.51,14.2.51,14.2l-5.1,13.15s-2.09-15.66-6.27-28.19-2.92-6.68-10.86-15.45S166.94,63.13,153,63.33,129.44,65,119.41,74.19s-23,18.74-27.57,26.32C89.88,103.74,88.5,121.39,88.5,121.39Z"/><path class="cls-10" d="M144,108l-4.17-7.24v1.78l-1.67-2.89v2.22l-3.35-4.3.56,2.77a21.08,21.08,0,0,0-6.4-2.77c-3.07-.57-2.23-.57-3.07-.57a61.24,61.24,0,0,0-8.77,1.25,10.82,10.82,0,0,0-3.87,1.59,18.58,18.58,0,0,0-2.25,1.62c-.7.69-2.93,3.34-2.93,3.34l6.13-.42,3.34-2.19s11.61-.66,12.81.35,6.66,2.35,6.66,2.35l7,3.11"/><path class="cls-10" d="M166.71,108.52l3.25-3.69,1.38-1.62,1.88-2.82-.08,2.22,3.71-4.17-.69,2.74a23.28,23.28,0,0,1,6.91-2.53c3.28-.45,2.39-.48,3.28-.45a81.83,81.83,0,0,1,9.29,1.58,16.31,16.31,0,0,1,4.92,2.3,19.09,19.09,0,0,1,2.5,2.23c.71.73,2,2.34,2,2.34l-6.51-.64c2.08.2-.12-2.57-5.09-2.66s-6-.42-12.72,1.29a41.44,41.44,0,0,1-6.48,1l-7.54,2.85"/><path class="cls-11" d="M214.78,108.72c-.56-.28-4.32-1.39-12.11-3.7s-17.55-2.36-27.15-.61c-2.37.42-10.3,3.61-13,4.31-2.09-1.39-14.62-.7-14.62-.7a18.17,18.17,0,0,1-3.34-1.25c-8.46-4.94-16.85-5-21.72-5.43s-29.65,3.53-29.65,3.53v3.85a17.6,17.6,0,0,1,2.68,1.53A5.62,5.62,0,0,1,98.53,115c.28,3.2,3.48,15.73,8.49,22.13s16.71,6.41,26.17,3.9,14.75-15,16.22-19.07c1.31-3.63,1.15-4.21.86-5-.6-1.56-1.1-2.6.33-3.67.73-.56,6.25-1.11,8.55-.13,2,.86.64,3.36.46,4.62-.5,3.5,4.49,12.77,4.49,12.77a30.21,30.21,0,0,0,13.37,12.81c9.6,4.73,22-1.67,25.89-5s8.22-18.24,8.63-20.47,3.21-5,3.62-6.27A2.71,2.71,0,0,0,214.78,108.72Zm-73.51,23.11c-12.11,14-26,7.1-30.42,4.39-13.16-13-9.82-28.4-4.39-30.07,26.73-6.06,35.09,3.13,35.09,3.13C152.41,116.59,141.27,131.83,141.27,131.83Zm62.93,0c-5,6.27-15.66,16.08-33.21,4.39-3.13-3.34-9.39-12.53-5.84-23.18,0,0,9.52-13.74,38.21-4.18C209.63,111,209.21,125.57,204.2,131.83Z"/><path class="cls-9" d="M140.94,117.49S128,98.8,114.22,114.23C123.63,119.74,123.29,122.45,140.94,117.49Z"/><path class="cls-16" d="M135.46,114.05a7.32,7.32,0,0,0-.46-2.53c-3-2.16-6.82-3.92-11.11-3.24a7.22,7.22,0,0,0-.36,11.25c2.32.74,5,.8,9.49-.08A7.2,7.2,0,0,0,135.46,114.05Z"/><path class="cls-17" d="M140.94,117.49S129.72,99.87,116,112.41c-.3.27-.59.55-.89.85s-2.27,1.83-2.58,2.17C112.56,115.43,129.05,102.92,140.94,117.49Z"/><circle class="cls-17" cx="128.27" cy="114.95" r="2.12"/><circle class="cls-9" cx="127.88" cy="114.06" r="0.83"/><path class="cls-9" d="M170.18,117.65s13.47-14.92,25.44-1.77C186.44,120.67,186.62,123.28,170.18,117.65Z"/><path class="cls-16" d="M175.54,114.64a6.8,6.8,0,0,1,.56-2.39c2.91-1.92,6.65-3.4,10.67-2.53a6.92,6.92,0,0,1-.23,10.75c-2.23.59-4.78.51-9-.55A6.9,6.9,0,0,1,175.54,114.64Z"/><path class="cls-17" d="M170.18,117.65s11.51-16.26,23.82-3.6c.27.28.53.56.8.86s2,1.87,2.33,2.2C197.13,117.11,182.17,104.34,170.18,117.65Z"/><ellipse class="cls-17" cx="182.32" cy="115.91" rx="2.02" ry="2.01" transform="translate(61.66 295.12) rotate(-88.5)"/><ellipse class="cls-9" cx="181.56" cy="115.57" rx="0.8" ry="0.79" transform="translate(61.26 294.04) rotate(-88.5)"/></svg>