<?xml version="1.0" encoding="utf-8"?>
<!-- Generator: Adobe Illustrator 25.0.1, SVG Export Plug-In . SVG Version: 6.00 Build 0)  -->
<svg version="1.1" id="Layer_1" xmlns="http://www.w3.org/2000/svg" xmlns:xlink="http://www.w3.org/1999/xlink" x="0px" y="0px"
	 viewBox="0 0 202 263" style="enable-background:new 0 0 202 263;" xml:space="preserve">
<style type="text/css">
	.st0{fill:url(#SVGID_1_);stroke:#1B5A73;stroke-miterlimit:10;}
	.st1{fill:#DB9889;}
	.st2{fill:#29304A;}
	.st3{fill:#1F161F;}
	.st4{fill:#F2A88F;}
	.st5{fill:#E69E89;}
	.st6{fill:#CA6C66;}
	.st7{fill:#93504D;}
	.st8{fill:#D9D5CF;}
	.st9{fill:#22100A;}
	.st10{fill:#301812;}
	.st11{fill:#EC5723;}
	.st12{fill:#EBE863;}
	.st13{fill:#13A652;}
	.st14{fill:#5A276F;}
	.st15{fill:#164520;}
	.st16{fill:#060505;}
</style>
<g>
	<radialGradient id="SVGID_1_" cx="101.0566" cy="116.8524" r="100.5121" gradientUnits="userSpaceOnUse">
		<stop  offset="3.658234e-03" style="stop-color:#0688A6"/>
		<stop  offset="0.237" style="stop-color:#0A84A2"/>
		<stop  offset="0.4996" style="stop-color:#137A96"/>
		<stop  offset="0.7754" style="stop-color:#196A84"/>
		<stop  offset="1" style="stop-color:#1B5A73"/>
	</radialGradient>
	<circle class="st0" cx="101.1" cy="116.9" r="100.5"/>
	<g>
		<path class="st1" d="M82.8,124.3l-4.8,29.1l12.5,11.9l28,2.8l19.8-14.2l-7.9-15.6l-9.3-2.5l2.5-13.3c0,0-11,6.8-16.1,7.1
			c-5.1,0.3-13,5.1-14.7,3.7s2.3,1.4-1.7-1.4S82.8,124.3,82.8,124.3z"/>
		<path class="st2" d="M100,262.8c0,0,64.6-66.7,67.6-69.6c9.5-9.4,16.9-18.4,21.9-28.1c-1.4-2.1-1.5-2.2-3.6-4.4s-3.9-4.1-8-8.5
			c-7.3-3.7-12.7-6.9-17-8.8c-4.3-1.9-14.2-6.2-14.2-6.2l-11.3-3.4l-14.2,2l-5.9,10.2l0.3,5.7l-0.3,13.7L101,166l-12.5-4.4l-13-13.6
			l0,0l-5.1-17.8h-4.8l-18.7,5.4c0,0-12.7,3.8-13.9,4c-1.2,0.2-6.2,3.1-8.5,4.8s-10.3,9.1-11.4,11c-1.1,1.8-3,4-2.5,5.4
			c0.6,1.7,4.4,8.1,5.6,10.1c3.9,6.9,7.7,10.7,16.9,21.3C44.7,205.3,100,262.8,100,262.8z"/>
		<path class="st3" d="M130.5,231.3c-2.2-0.8-4.7,4.8-4.7,4.8l-24.4,12c0,0,17.9-5.9,19.3-6.7"/>
		<path class="st3" d="M160.1,200.5"/>
		<path class="st3" d="M67.7,216.8c-2.2-0.8-5.8-0.2-8.6-3.6s-12.7-15.9-12.7-15.9s9.1,19.3,10.1,20L67.7,216.8z"/>
		<path class="st3" d="M143.4,213.9c-2.2-0.8-4.3-1.7-6.6-0.2c-3.6,2.5-12.2,0.9-12.2,0.9s2.9,2.8,10.7,2.8L143.4,213.9z"/>
		<path class="st3" d="M25.7,150.3l7.6,2c0,0,4.2,1.7,6.2,4.8s4.2,4.5,7.4,6.5c3.1,2,10.2,12.7,10.2,12.7s-8.8-5.4-8.8-6.8
			s-3.4-5.9-6.9-5.1c-3.5,0.8-6.7-3.7-7.8-5.7s-7.9-5.1-7.9-5.1V150.3z"/>
		<path class="st3" d="M145.7,153.1c0,0,20.8-7,19.1-7.5c-1.8-0.6-9.4-5.8-11.1-6.1c-1.8-0.3-5.6-1.4-5.6-1.4L145.7,153.1z"/>
		<path class="st3" d="M169,147.7l-24.4,14.4c0,0,17.8-1.1,19.3-2c1.4-0.8,1.4-0.8,1.4-0.8s4.8-3.1,7.4-2.8c2.5,0.3,7.4,3.1,6.8,5.7
			c-0.6,2.5-4,18.7-3.7,19.8c0.3,1.1,0.3,1.1,0.3,1.1l4.5-17.7c0,0,0.6-8.6,0-10.1c-0.6-1.4-3.4-4.1-6.6-5.2
			C171.9,149.4,169,147.7,169,147.7z"/>
		<path class="st3" d="M29.6,141.4c2.1-1.6,3.4-1.8,5.2-2.4c2.1-0.7,11.8-3.3,11.8-3.3l12.8-3.8l4.3-2l1,15.2l-4.5,15
			c0,0-11-8.2-13.3-9.6s-7.1-3.4-9.1-2.5C35.9,148.7,26.1,143.9,29.6,141.4z"/>
		<path class="st3" d="M78.5,151.1c0,0,12.3,14.5,28.3,13.1s23.7-4.4,25.1-6.6c1.4-2.2,1.4-2.2,1.4-2.2l4.2-19.8l7.1,1.7
			c0,0-2.5,19.8-4.2,22.4c-1.7,2.5-19,13.3-28.3,12.2s-25.8-5.7-27.8-6.5c-2-0.8-1,1.3-2-0.8c-2.8-6.2-8.2-12.2-8.2-12.2L78.5,151.1
			z"/>
		<path class="st4" d="M138.7,84.4c-5.1,30.2-17.6,52.1-35.9,52.1c-14.7,0-26.2-14.8-30.5-35.7c-1.1-5.1-2.7-10.8-2.7-16.4
			c0-28.8,14.9-52.1,33.2-52.1c16,0,34.8,14.9,37.9,38.7C141.1,74.4,139.3,80.9,138.7,84.4z"/>
		<path class="st5" d="M100.3,92.8c0,0,1.5-11.8,0-14.6c-1.5-2.8-4-6.5-6.9-7.1c-2.9-0.6-13.3-1.2-14.4-0.8s-8.2,0.1-8.3,1.9
			c-0.1,1.9-1.2,28-1.2,28l5.6,16.9l4.3,5c0,0-0.3-7.9-1.4-15.8c-1.1-7.8-2.5-10.4-2.4-12.1c0-1.7-3.3-7.5,0.5-8.2
			c3.8-0.8,12.3-0.5,13.5-1.7c1.2-1.2,2.4-4,2.4-4s2.3-3.4,4.1-2.8c1.9,0.6,3.2,4.7,3.4,7.1C100,87.1,100.3,92.8,100.3,92.8z"/>
		<path class="st5" d="M113.5,73.8c-1.5,1-2.8,6.9-2.7,7.6s-1.1,1.1,0.3,4c1.3,2.9,0.8-0.8,0.7,0.9c-0.1,1.7,2.2,6.5,1.3,3
			c-0.9-3.5-1.5-1.4-0.8-1.9c0.7-0.4,1.8-3,5.1-1.3c3.3,1.7,6.2,3.4,8.3,2.2c2.1-1.2,2.1-1.2,2.1-1.2s2.3-6.4,4.1-6.5
			s4.5,0.8,4.8,1.2c0.3,0.4-0.3-1.5-2.5-3.6c-2.2-2.1-10.6-6.7-12.7-6.6c-2.1,0.1-6.4,2-6.4,2"/>
		<path class="st5" d="M97.1,94.8c0,0-3.5,4.1-2.6,6.5c0.8,2.4,1.5,4.1,2.6,4c0.6,0,2.8-1.1,3.8,0c1,1.1,2.4,1.5,2.7,1.5
			s-1.6-0.9-1.9-1.5c-0.3-0.6-1.4-1.7-2.3-1.5c-0.8,0.2-1.5,0.5-1.7,0.4s-1-0.6-1.2-1.1c-0.1-0.5-0.1-2,1.1-2.5
			c1.1-0.4,1-2.4,1.7-3.3c0.9-1.1,1.5-12,1.5-12L97.1,94.8z"/>
		<path class="st5" d="M74.1,96.3c0,0,6.6,21.9,11.1,26.9C79.9,108.8,74.1,96.3,74.1,96.3z"/>
		<path class="st5" d="M89,106.5c0,0-6.8-2.9-5.7,3.3c1.1,6.3,3.1,10,3.1,10S80.3,105,89,106.5z"/>
		<path class="st5" d="M122.3,109.7c0,0,0.4,3.2-2.1,7c-2.5,3.8-5,7.7-5,7.7s6.9-3.7,8-5.2c1.1-1.5,10-18.9,10-18.9s-8.1,12.5-9,14
			C122.3,109.7,122.3,109.7,122.3,109.7z"/>
		<path class="st5" d="M106.7,127.2c0.6,0.7-3.7,3.8-8.2,0c-0.5,0,1.6,1,3.7,1"/>
		<path class="st6" d="M88.3,110.8c0.1,0.1,0.8,0.9,1.5,2.2c2.9,5.5,13.2,18.9,29.6,1.2c-7.3,1.1-8.5,0.7-9.7,0.3
			c-1.1-0.4-3.8-1-4.7-0.3c-0.9,0.7-2.1,0.3-2.9-0.1c-0.8-0.4-2.5-0.3-3.9-0.1C96.8,114.1,87.6,110.1,88.3,110.8z"/>
		<path class="st7" d="M88.3,110.8c0,0,1.5,1.6,4,3.5c5,3.8,13.8,6.5,23.8,1.7c-6.1,2.6-6.7,2-9.1,2.1c-7.3,0.3-12.5-1.5-15.3-4.5
			C88.3,110.8,88.3,110.8,88.3,110.8z"/>
		<path class="st7" d="M88.3,110.8c0,0,1.5,1.6,4,3.5c5,3.8,13.8,6.5,23.8,1.7c-6.1,2.6-6.7,2-9.1,2.1c-7.3,0.3-12.5-1.5-15.3-4.5
			C88.3,110.8,88.3,110.8,88.3,110.8z"/>
		<path class="st8" d="M94.1,115.5c4,2.4,9.5,3.9,16,2.5l0.7-0.2c-1.4,0.2-2.6,0.2-3.8,0.2c-5.7,0.2-10.2-0.8-13.1-2.7L94.1,115.5z"
			/>
		<path class="st9" d="M78.1,117c0,0,9.6,14.4,8.8,22.1c-0.8,7.7-2.8,17.9-3.4,25.3c-0.6,7.4-3,11.4,1.9,16.8s0.1,2.3-3,0
			s-4-4.8-4-4.8l-4-12c0,0-4.5-0.3-3.7,6s-2.5,8,2.8,10c5.4,2-7.1,0.9-10.5-4.8c-3.4-5.7-7.1-6.5-5.7-14.8c1.4-8.3,1.4-8.3,1.4-8.3
			s5.1-2.4,5.4-9.4c0.1-3.8-1.5-5.3-3.5-5c-1,0.2,1.4-5,1.4-5s0.1-4.8,1-10c0.8-5.1,0.3-22.8,0.3-22.8V86.1v-10l0-10.9l2.6-7.9
			l18.7-21.6l21-1.7l15.3,1.7l9.3,3.4l6.8,5.1l9.6,10.5l-0.6,9.1l1.1,5.1c0,0-2.4,12.2,1.7,32.1c0.9,4.3-2.3,17.4-2.3,17.4
			s4.9,13.9,3.4,18.5c-1.4,4.6-4.8,13.1-2.9,15.9c2,2.8,2,2.8,2,2.8s2.3,4.8,2.8,11.4c0.6,6.5,0.3,15.1-3.7,16.9l-4-7.8
			c0,0,0.2,11.6,0,9.1c-0.2-2.4-1.1-4.3-2.8-8.3s-1.7-4-1.7-4l0,0c0,0-4,4.8-6.2,5.7c-2.3,0.9,2.8-3.4-0.3-7.4s-9.1-8-11-10.5
			c-2-2.6,2.3-9.7,2.3-9.7s-6.8-3.1-7.4,4.6c-0.6,7.7-2,9.7,2.3,13.4c4.2,3.7,9.1,8.8,9.1,8.8s-6.5,0.9-9.6-2.6
			c-3.1-3.4-3.1-3.4-3.1-3.4l-2.8-13.1c0,0-1.1-15.1,2-17.9c3.1-2.8,1.8-2.8,4.1-3.9s4.1-11.8,4.1-11.8l4.3-6.5
			c0,0,3.9-7.9,4.7-10.4c4.4-13.1,4.7-14.4,6.4-23.6c0.9-4.7,1.3-11.3,1.6-15.1c0.1-1.8-0.6-3.1-0.6-3.1l-6.8-1l0.3-9.1
			c0,0-3.1,3.4-1.7,6.3s-4.5-3.4-4.2-5.1c0.3-1.7-3.4,4.3-3.4,4.3l-20-0.5L89.1,61l-0.6-5.7l-3.4,6c0,0-6.8-2.3-9.1-1.1
			c-2.3,1.1-5.7,26.4-4.8,34.6C72.5,105.6,78.1,117,78.1,117z"/>
		<path class="st10" d="M72.8,122.5c0,0,4.8,13.6,5.2,21.1c0.4,7.5-4.4,6-4,8.6c0,0,3.2-1.6,3.6-2c0.4-0.4,2.1-3.5,1.7-5.9
			c-0.4-2.4-1.3-9.9-2.1-11.8C76.4,130.7,72.8,122.5,72.8,122.5z"/>
		<path class="st10" d="M87.7,43.8c0,0,4.9,12.5,4.9,12.4c0-0.1,1.5-1.5,0-6.2s-2.1-7.5-2.1-7.5L87.7,43.8z"/>
		<path class="st5" d="M114.4,101.6c0.1,2-1.1,3.2-1.2,3.3c0,0-0.2,0.2-0.8,0.5c-0.6,0.2-2-0.2-3.3,0s-1,0.7-1.8,1.2
			c0,0,1.8-1.2,2.8-0.7c1,0.6,3.4-0.3,4.1-1.3c0.7-1.1,0.7-3.6,0.6-3.9s-2.8-7.3-2.8-7.3S114.4,100.7,114.4,101.6z"/>
		<path class="st10" d="M64.9,65.6c0,0-5,2.9-4.4,17s2.9,19.2,1,22.6c-1.9,3.4-7.8,17-8.9,21.5s-1.9,6.7,0,12
			c1.9,5.4,6.2,12.5,6.2,12.5l5.6,6.2c0,0-2.3-8.6-1.9-9.6c0.4-1,1.1-3.4,1.4-4.1c0.4-1,0.5-0.9,1.4-2.4c0.6-0.9-0.2-2.5-0.2-2.5
			l0.4,0.3c0,0-3-5.8-2.2-14.4s1.1-5.6,0.6-18.6s-0.6-19.1-0.1-20.3c0.5-1.3-0.6-14.1,0.2-16.2C64.7,67.3,64.9,65.6,64.9,65.6"/>
		<path class="st10" d="M144.1,86.6l1.2,10.6c0,0,0.4,3.2,0.4,4.9c-0.1,1.7-2.5,15-2.4,16c0.2,0.9,1,3.3,1,3.3l1.9-12.6l1.3-6
			c0,0,0.5-3.6,0.2-8.1c-0.3-4.4-1.1-11.7-1.1-11.7L144.1,86.6"/>
		<path class="st10" d="M135.9,120.8c0,0,0.8,10.5-2,16.6c-2.8,6.1-7.3,18.5-6.3,20.4c1.6,3.1,4.7,5.7,9.7,7.6
			c10.7,4.1,11,18.6,11,18.6s0.8-14.2-1.4-18.1c-2.3-3.8-15.7-5.3-14.6-11c2-11,4.8-13.3,4.5-20.4
			C136.5,127.5,135.9,120.8,135.9,120.8z"/>
		<path class="st11" d="M67.8,31.6c0,0,5-17.1,17.4-24.5s14.7-6.8,19.1-6.5s10.1,3.1,11.6,3.9c1.5,0.8,7.8,4.2,9,5.4
			c1.1,1.2,6.2,9.2,6.2,9.2L67.8,31.6z"/>
		<path class="st12" d="M61.5,47.7c0,0,6.6-27.1,18.5-32.2s23.2-9.3,33.1-8.2s15.9,7.6,17.6,9.6c1.7,2,7.6,12.7,7.6,12.7l-29-11.6
			L79.1,29.6L61.5,47.7L61.5,47.7L61.5,47.7L61.5,47.7"/>
		<path class="st13" d="M142.7,40.1c0,0-2.5-9.6-5.9-13.6c-3.4-4-16.1-14.4-28.5-13.6s-25.6,4.7-30.2,9C73.5,26.2,65.3,34.4,65.9,44
			s36.4-13.9,36.4-13.9L142.7,40.1z"/>
		<path class="st14" d="M60.5,82.6c0,0-2.5-13-1.7-22.4c0.8-9.3,3.1-18.1,13-25.5s21-15,37.5-12.2s25.4,6.8,29,10.5
			c3.7,3.7,10.2,9.1,9.3,11.9c-0.8,2.8,1.5,8.2,1.5,10.8s0.2,8.2,0.5,9.1c0.3,0.8,0.3,9.6,0.3,9.6l-3.5,8.9c0,0-1.4-10.6-4.2-19.1
			s-2-4.5-7.4-10.5c-5.4-5.9-21.3-10.6-30.8-10.5c-9.5,0.1-16,1.1-22.8,7.4S65.9,63.3,62.8,68.4C61.4,70.6,60.5,82.6,60.5,82.6z"/>
		<path class="st9" d="M98.1,73.5l-2.8-4.9v1.2l-1.1-2v1.5l-2.3-2.9l0.4,1.9c0,0-2.3-1.5-4.3-1.9S86.4,66,85.9,66
			c-0.9,0-4.3,0.4-5.9,0.8c-1.5,0.4-2,0.7-2.6,1.1c-0.6,0.4-1.3,0.9-1.5,1.1c-0.5,0.5-2,2.3-2,2.3l4.2-0.3l2.3-1.5
			c0,0,7.9-0.4,8.7,0.2c0.8,0.7,4.5,1.6,4.5,1.6L98.1,73.5"/>
		<path class="st9" d="M113.5,73.8l2.2-2.5l0.9-1.1l1.3-1.9l-0.1,1.5l2.5-2.8l-0.5,1.9c0,0,2.5-1.4,4.7-1.7c2.2-0.3,1.6-0.3,2.2-0.3
			s4.7,0.6,6.3,1.1c1.6,0.4,2.7,1.2,3.3,1.6c0.6,0.4,1.4,1.3,1.7,1.5c0.5,0.5,1.3,1.6,1.3,1.6s-5.8-0.6-4.4-0.4
			c1.4,0.1-0.1-1.7-3.5-1.8c-3.4-0.1-4.1-0.3-8.6,0.9c-2.1,0.5-4.4,0.7-4.4,0.7L113.5,73.8"/>
		<path class="st10" d="M146.1,74c-0.4-0.2-2.9-0.9-8.2-2.5c-5.3-1.6-11.9-1.6-18.4-0.4c-1.6,0.3-7,2.5-8.8,2.9
			c-1.4-0.9-9.9-0.5-9.9-0.5s-0.7-0.1-2.3-0.8c-5.7-3.4-11.4-3.4-14.7-3.7c-3.3-0.3-20.1,2.4-20.1,2.4V74c0,0,1.2,0.6,1.8,1
			c0.6,0.5,1.6,1,1.8,3.2c0.2,2.2,2.4,10.7,5.8,15c3.4,4.3,11.3,4.3,17.8,2.6c6.4-1.7,10-10.2,11-12.9c0.9-2.5,0.8-2.9,0.6-3.4
			c-0.4-1.1-0.7-1.8,0.2-2.5c0.5-0.4,4.2-0.7,5.8-0.1c1.4,0.6,0.4,2.3,0.3,3.1c-0.3,2.4,3,8.7,3,8.7s2.5,5.5,9.1,8.7
			c6.5,3.2,14.9-1.1,17.6-3.4c2.6-2.3,5.6-12.4,5.9-13.9c0.3-1.5,2.2-3.4,2.5-4.2C147,75.1,146.5,74.2,146.1,74z M96.3,89.7
			c-8.2,9.5-17.7,4.8-20.6,3c-8.9-8.8-6.7-19.3-3-20.4c18.1-4.1,23.8,2.1,23.8,2.1C103.8,79.3,96.3,89.7,96.3,89.7z M139,89.7
			c-3.4,4.2-10.6,10.9-22.5,3c-2.1-2.3-6.4-8.5-4-15.7c0,0,6.5-9.3,25.9-2.8C142.7,75.5,142.4,85.4,139,89.7z"/>
		<path class="st8" d="M96.1,79.9c0,0-8.8-12.7-18.1-2.2C84.3,81.5,84.1,83.3,96.1,79.9z"/>
		<path class="st15" d="M92.3,77.6c0-0.6-0.1-1.2-0.3-1.7c-2-1.5-4.6-2.7-7.5-2.2c-1.2,0.9-2,2.3-2,3.9c0,1.5,0.7,2.8,1.7,3.7
			c1.6,0.5,3.4,0.5,6.4-0.1C91.7,80.4,92.3,79.1,92.3,77.6z"/>
		<path class="st16" d="M96.1,79.9c0,0-7.6-12-16.9-3.4c-0.2,0.2-0.4,0.4-0.6,0.6c-0.2,0.2-1.5,1.2-1.8,1.5
			C76.8,78.5,88,70,96.1,79.9z"/>
		<circle class="st16" cx="87.5" cy="78.2" r="1.4"/>
		<circle class="st8" cx="87.2" cy="77.6" r="0.6"/>
		<path class="st8" d="M115.9,80c0,0,9.1-10.1,17.3-1.2C126.9,82.1,127,83.9,115.9,80z"/>
		<path class="st15" d="M119.5,78c0-0.6,0.2-1.1,0.4-1.6c2-1.3,4.5-2.3,7.2-1.7c1.1,0.9,1.7,2.3,1.7,3.8c-0.1,1.4-0.8,2.7-1.8,3.5
			c-1.5,0.4-3.2,0.3-6.1-0.4C120,80.7,119.5,79.4,119.5,78z"/>
		<path class="st16" d="M115.9,80c0,0,7.8-11,16.2-2.4c0.2,0.2,0.4,0.4,0.5,0.6c0.2,0.2,1.4,1.3,1.6,1.5C134.2,79.7,124,71,115.9,80
			z"/>
		
			<ellipse transform="matrix(2.624882e-02 -0.9997 0.9997 2.624882e-02 42.0461 200.8681)" class="st16" cx="124.1" cy="78.9" rx="1.4" ry="1.4"/>
		
			<ellipse transform="matrix(2.624882e-02 -0.9997 0.9997 2.624882e-02 41.773 200.1393)" class="st8" cx="123.6" cy="78.6" rx="0.5" ry="0.5"/>
	</g>
</g>
</svg>
