<svg id="Layer_1" data-name="Layer 1" xmlns="http://www.w3.org/2000/svg" xmlns:xlink="http://www.w3.org/1999/xlink" viewBox="0 0 260.03 338.19"><defs><style>.cls-1,.cls-18{stroke:#1b5a73;stroke-miterlimit:10;}.cls-1{fill:url(#radial-gradient);}.cls-2{fill:#db9889;}.cls-3{fill:#29304a;}.cls-4{fill:#1f161f;}.cls-5{fill:#f2a88f;}.cls-6{fill:#e69e89;}.cls-7{fill:#ca6c66;}.cls-8{fill:#93504d;}.cls-9{fill:#d9d5cf;}.cls-10{fill:#22100a;}.cls-11{fill:#301812;}.cls-12{fill:#ec5723;}.cls-13{fill:#ebe863;}.cls-14{fill:#13a652;}.cls-15{fill:#5a276f;}.cls-16{fill:#164520;}.cls-17{fill:#060505;}.cls-18{fill:url(#radial-gradient-2);}.cls-19{fill:#c88a7c;}</style><radialGradient id="radial-gradient" cx="130.01" cy="150.11" r="129.51" gradientUnits="userSpaceOnUse"><stop offset="0" stop-color="#0688a6"/><stop offset="0.27" stop-color="#0884a1"/><stop offset="0.57" stop-color="#0d7894"/><stop offset="0.88" stop-color="#17637d"/><stop offset="1" stop-color="#1b5a73"/></radialGradient><radialGradient id="radial-gradient-2" cx="108.97" cy="166.12" r="0" xlink:href="#radial-gradient"/></defs><circle class="cls-1" cx="130.01" cy="150.11" r="129.51"/><path class="cls-2" d="M107.74,162.34l-6.13,37.55,16.06,15.33,36.14,3.66,25.55-18.26-10.22-20.07-12-3.29,3.28-17.16s-14.24,8.76-20.81,9.13-16.79,6.57-19,4.75,2.92,1.82-2.19-1.83A81.1,81.1,0,0,1,107.74,162.34Z" transform="translate(-1.23 -2.7)"/><path class="cls-3" d="M129.82,340.89s83.29-85.93,87.08-89.7C229.12,239,238.74,227.5,245.13,215a29.11,29.11,0,0,0-4.66-5.62c-2.69-2.79-5-5.22-10.37-10.95-9.38-4.76-16.39-8.89-21.9-11.31l-18.25-8-14.6-4.38-18.25,2.55-7.67,13.14.36,7.3-.36,17.71-18.25.73-16.06-5.66L98.32,193h0l-6.57-23h-6.2L61.46,176.9S45.1,181.74,43.57,182s-8,4-11,6.2S19.31,200,17.89,202.33s-3.83,5.17-3.26,6.9c.74,2.22,5.71,10.38,7.24,13,5.08,8.83,9.91,13.79,21.84,27.46C58.61,266.8,129.82,340.89,129.82,340.89Z" transform="translate(-1.23 -2.7)"/><path class="cls-4" d="M169.24,300.22c-2.77-1-6.08,6.19-6.08,6.19L131.7,321.92s23.09-7.57,24.92-8.66" transform="translate(-1.23 -2.7)"/><path class="cls-4" d="M207.36,260.62" transform="translate(-1.23 -2.7)"/><path class="cls-4" d="M88.32,281.64c-2.77-1-7.53-.23-11-4.61L60.89,256.58S72.68,281.44,74,282.32Z" transform="translate(-1.23 -2.7)"/><path class="cls-4" d="M185.74,277.86c-2.77-1-5.5-2.24-8.48-.2-4.64,3.17-15.78,1.11-15.78,1.11s3.79,3.55,13.78,3.55Z" transform="translate(-1.23 -2.7)"/><path class="cls-4" d="M34.08,195.88l9.85,2.55s5.48,2.19,8,6.21,5.48,5.84,9.5,8.39S74.6,229.46,74.6,229.46s-11.32-6.93-11.32-8.76-4.38-7.67-8.94-6.57-8.58-4.75-10-7.3-10.22-6.52-10.22-6.52Z" transform="translate(-1.23 -2.7)"/><path class="cls-4" d="M188.74,199.46s26.85-9,24.58-9.7-12.08-7.51-14.36-7.88-7.19-1.82-7.19-1.82Z" transform="translate(-1.23 -2.7)"/><path class="cls-4" d="M218.79,192.59l-31.4,18.62s23-1.46,24.83-2.56l1.82-1.09s6.21-4,9.49-3.65,9.49,4,8.76,7.3-5.11,24.09-4.74,25.55l.36,1.46,5.84-22.81s.73-11.14,0-13-4.44-5.23-8.51-6.69A48.21,48.21,0,0,1,218.79,192.59Z" transform="translate(-1.23 -2.7)"/><path class="cls-4" d="M39.19,184.38a18.62,18.62,0,0,1,6.66-3.1c2.72-.87,15.24-4.2,15.24-4.2l16.5-4.87,5.54-2.63,1.32,19.54-5.84,19.35s-14.23-10.58-17.15-12.41-9.13-4.38-11.69-3.29S34.69,187.68,39.19,184.38Z" transform="translate(-1.23 -2.7)"/><path class="cls-4" d="M102.15,197s15.8,18.64,36.47,16.81,30.52-5.71,32.35-8.51l1.82-2.8,5.48-25.55,9.12,2.19s-3.28,25.55-5.47,28.83-24.46,17.16-36.51,15.7-33.21-7.3-35.77-8.4-1.31,1.63-2.55-1.09c-3.68-8-10.59-15.7-10.59-15.7Z" transform="translate(-1.23 -2.7)"/><path class="cls-5" d="M179.73,111c-6.57,38.89-22.7,67.16-46.32,67.16-19,0-33.75-19.09-39.34-46-1.36-6.57-3.44-13.91-3.44-21.19,0-37.1,19.15-67.17,42.78-67.17,20.67,0,44.88,19.26,48.87,49.87C182.85,98.08,180.5,106.43,179.73,111Z" transform="translate(-1.23 -2.7)"/><path class="cls-6" d="M130.2,121.77s2-15.14,0-18.76-5.14-8.39-8.83-9.17-17.15-1.5-18.54-1-10.6.11-10.71,2.5-1.49,36-1.49,36l7.21,21.78,5.57,6.45s-.34-10.22-1.8-20.32-3.19-13.45-3.15-15.58-4.24-9.61.67-10.58,15.86-.61,17.45-2.13,3.14-5.15,3.14-5.15,2.93-4.4,5.34-3.57,4.11,6,4.43,9.14S130.2,121.77,130.2,121.77Z" transform="translate(-1.23 -2.7)"/><path class="cls-6" d="M149.32,96.65c-1.9,1.31-3.61,8.94-3.49,9.79s-1.39,1.43.32,5.21,1-1.08.88,1.11,2.84,8.4,1.66,3.91-1.93-1.82-1-2.39,1.83-2.28,6.58-1.63c2.34.32,6,1.84,8.78,1.4,3.14-.5,4.48-3.75,4.48-3.75s3.16-4.73,5.47-4.78,5.84,1,6.21,1.59-.36-1.9-3.22-4.62-13.69-8.65-16.37-8.5-8.2,2.63-8.2,2.63" transform="translate(-1.23 -2.7)"/><path class="cls-6" d="M127.16,125.59c0,2.88-2.74,4.94-3.22,8.27s1.39,5.79,2.88,5.65c.73,0,2.92-2.29,4.25-.83a3.94,3.94,0,0,0,3.51,1.1c.49,0-2.06-1.21-2.43-1.94s-1.82-2.25-2.92-2a9.3,9.3,0,0,1-2.22.57c-.23-.11-1.34-.81-1.52-1.48s-.47-3.27,1.1-3.87,2.07-2.78,2.84-4.75c.66-1.7,1.59-14.29,1.59-14.29S127.16,121.3,127.16,125.59Z" transform="translate(-1.23 -2.7)"/><path class="cls-6" d="M96.5,126.36s8.44,28.27,14.35,34.66C104,142.4,96.5,126.36,96.5,126.36Z" transform="translate(-1.23 -2.7)"/><path class="cls-6" d="M115.66,139.51s-8.76-3.78-7.3,4.3a46.58,46.58,0,0,0,4,12.83S104.53,137.53,115.66,139.51Z" transform="translate(-1.23 -2.7)"/><path class="cls-6" d="M158.55,143.52s.53,4.1-2.74,9-6.43,9.91-6.43,9.91,8.85-4.78,10.31-6.66,12.9-24.35,12.9-24.35l-11.6,18Z" transform="translate(-1.23 -2.7)"/><path class="cls-6" d="M138.47,166.12c.81.91-4.8,4.94-10.58,0-.61,0,2.11,1.33,4.82,1.33" transform="translate(-1.23 -2.7)"/><path class="cls-7" d="M114.81,145a14.63,14.63,0,0,1,1.92,2.83c3.77,7.15,17,24.37,38.12,1.54-9.38,1.47-11,.92-12.48.37s-4.86-1.28-6.08-.37-2.68.37-3.69-.11-3.22-.35-5-.16S114,144.08,114.81,145Z" transform="translate(-1.23 -2.7)"/><path class="cls-8" d="M114.81,145a38.25,38.25,0,0,0,5.11,4.5c6.45,4.84,17.77,8.37,30.68,2.15-7.85,3.36-8.65,2.62-11.69,2.74-9.39.39-16.13-2-19.66-5.8Z" transform="translate(-1.23 -2.7)"/><path class="cls-8" d="M114.81,145a38.25,38.25,0,0,0,5.11,4.5c6.45,4.84,17.77,8.37,30.68,2.15-7.85,3.36-8.65,2.62-11.69,2.74-9.39.39-16.13-2-19.66-5.8Z" transform="translate(-1.23 -2.7)"/><path class="cls-9" d="M122.27,151a27.87,27.87,0,0,0,20.61,3.25l.89-.2a48.35,48.35,0,0,1-4.86.27c-7.36.31-13.08-1.08-16.91-3.53Z" transform="translate(-1.23 -2.7)"/><path class="cls-10" d="M101.61,153s12.41,18.51,11.32,28.42-3.65,23.1-4.38,32.64-3.9,14.67,2.43,21.64.17,2.93-3.87,0a14.28,14.28,0,0,1-5.14-6.24L96.86,214s-5.84-.37-4.74,7.7S88.83,232,95.77,234.55s-9.13,1.1-13.51-6.24-9.12-8.43-7.3-19.07l1.83-10.63s6.6-3.16,6.93-12.11c.19-4.85-1.88-6.79-4.56-6.38-1.34.2,1.83-6.47,1.83-6.47a108.32,108.32,0,0,1,1.27-12.82c1.1-6.6.37-29.34.37-29.34V100.31l0-14L85.91,76.1,110,48.23,137,46l19.71,2.2,12.05,4.4,8.76,6.6L190,72.8l-.73,11.74,1.46,6.6s-3.1,15.72,2.19,41.38C194,138,190,155,190,155s6.26,18,4.41,23.84-6.24,16.87-3.68,20.54l2.55,3.67a47.78,47.78,0,0,1,3.65,14.67c.73,8.43.37,19.45-4.74,21.83L187,229.41s.24,14.9,0,11.74-1.46-5.5-3.65-10.64l-2.19-5.13h0s-5.11,6.23-8,7.33,3.65-4.4-.37-9.53-11.68-10.27-14.23-13.57,2.92-12.47,2.92-12.47-8.76-4-9.49,5.87-2.56,12.47,2.92,17.23,11.68,11.37,11.68,11.37-8.4,1.1-12.41-3.3l-4-4.4L146.51,207s-1.46-19.44,2.55-23.11,2.36-3.56,5.28-5,5.35-15.17,5.35-15.17l5.58-8.33s5-10.22,6.06-13.43c5.71-16.89,6.09-18.59,8.31-30.37,1.13-6,1.64-14.61,2-19.51a7.49,7.49,0,0,0-.81-4l-8.77-1.31L172.43,75s-4,4.41-2.19,8.07-5.84-4.4-5.48-6.6-4.38,5.5-4.38,5.5l-25.73-.63-18.8-.47-.73-7.33-4.38,7.7S102,78.31,99.05,79.77s-7.33,34-6.15,44.52C94.46,138.3,101.61,153,101.61,153Z" transform="translate(-1.23 -2.7)"/><path class="cls-11" d="M94.86,160.1s6.21,17.55,6.75,27.2S96,195.06,96.5,198.43c0,0,4.14-2.1,4.62-2.55s2.68-4.47,2.22-7.58-1.64-12.77-2.73-15.24S94.86,160.1,94.86,160.1Z" transform="translate(-1.23 -2.7)"/><path class="cls-11" d="M114,58.72s6.29,16.06,6.29,16,1.93-2,0-8S117.59,57,117.59,57Z" transform="translate(-1.23 -2.7)"/><path class="cls-11" d="M84.64,86.74S78.16,90.47,79,108.63s3.68,24.73,1.29,29.12-10,21.9-11.42,27.65-2.47,8.58,0,15.51S76.79,197,76.79,197L84,205s-3-11.1-2.42-12.38,1.4-4.4,1.76-5.25a19.55,19.55,0,0,1,1.8-3.08c.73-1.22-.3-3.29-.3-3.29l.58.37s-3.84-7.49-2.83-18.62,1.46-7.21.73-24-.82-24.55-.18-26.19-.73-18.16.27-20.9a21.34,21.34,0,0,0,1.19-4.92" transform="translate(-1.23 -2.7)"/><path class="cls-11" d="M186.7,113.85l1.61,13.64a51.18,51.18,0,0,1,.48,6.33c-.08,2.19-3.28,19.35-3,20.56a43.58,43.58,0,0,0,1.34,4.2l2.39-16.23,1.63-7.76a56,56,0,0,0,.19-10.38c-.42-5.7-1.36-15.08-1.36-15.08l-3.24,4.72" transform="translate(-1.23 -2.7)"/><path class="cls-11" d="M176.08,157.91s1.09,13.51-2.56,21.36-9.37,23.8-8.06,26.34c2.07,4,6,7.35,12.44,9.8,13.76,5.25,14.24,24,14.24,24s1.09-18.36-1.83-23.29-20.19-6.77-18.86-14.18c2.56-14.23,6.21-17.16,5.84-26.28S176.08,157.91,176.08,157.91Z" transform="translate(-1.23 -2.7)"/><path class="cls-12" d="M88.35,42.93s6.45-22,22.39-31.63,18.94-8.77,24.62-8.41,13,4,14.92,5,10.1,5.36,11.56,6.94,8,11.8,8,11.8Z" transform="translate(-1.23 -2.7)"/><path class="cls-13" d="M80.27,63.67s8.56-35,23.9-41.55,29.93-12,42.7-10.59,20.45,9.86,22.64,12.41,9.85,16.43,9.85,16.43L142,25.4l-39,15L80.27,63.67h0" transform="translate(-1.23 -2.7)"/><path class="cls-14" d="M184.84,53.88s-3.29-12.41-7.67-17.52-20.8-18.62-36.68-17.53-33,6.11-38.88,11.64S85.18,46.58,85.91,59,132.82,41.1,132.82,41.1Z" transform="translate(-1.23 -2.7)"/><path class="cls-15" d="M79,108.63S75.69,91.84,76.79,79.8s4-23.37,16.79-32.86,27-19.35,48.37-15.69,32.67,8.76,37.41,13.5,13.14,11.68,12,15.33S193.3,70.67,193.3,74s.3,10.59.66,11.69.45,12.41.45,12.41L190,109.55s-1.83-13.69-5.48-24.64S181.92,79.07,175,71.4s-27.45-13.69-39.63-13.51-20.6,1.46-29.36,9.49-20.08,16.38-24.09,23C80.18,93.21,79,108.63,79,108.63Z" transform="translate(-1.23 -2.7)"/><path class="cls-10" d="M127.47,96.9l-3.65-6.33v1.55l-1.46-2.53v2l-2.92-3.76.49,2.42a18.48,18.48,0,0,0-5.6-2.42c-2.67-.5-1.94-.5-2.67-.5a53,53,0,0,0-7.67,1.1,9.25,9.25,0,0,0-3.38,1.39,16.37,16.37,0,0,0-2,1.41c-.61.61-2.56,2.92-2.56,2.92l5.35-.37,2.92-1.91s10.15-.58,11.2.3,5.82,2.06,5.82,2.06l6.1,2.72" transform="translate(-1.23 -2.7)"/><path class="cls-10" d="M147.33,97.38l2.84-3.22,1.21-1.41L153,90.28,153,92.22l3.24-3.65-.6,2.4a20.26,20.26,0,0,1,6-2.21c2.87-.4,2.09-.42,2.87-.4a72.74,72.74,0,0,1,8.12,1.38,14.87,14.87,0,0,1,4.29,2,16.72,16.72,0,0,1,2.19,2c.62.63,1.73,2,1.73,2l-5.68-.56c1.81.18-.1-2.24-4.45-2.32s-5.29-.37-11.12,1.12a36,36,0,0,1-5.66.9l-6.59,2.49" transform="translate(-1.23 -2.7)"/><path class="cls-11" d="M189.34,97.56c-.49-.24-3.77-1.22-10.59-3.24s-15.33-2-23.72-.53c-2.07.37-9,3.16-11.32,3.77-1.82-1.22-12.78-.61-12.78-.61A16.62,16.62,0,0,1,128,95.86c-7.39-4.32-14.72-4.38-19-4.75s-25.91,3.08-25.91,3.08v3.37a14.87,14.87,0,0,1,2.34,1.34A4.93,4.93,0,0,1,87.74,103c.24,2.79,3,13.75,7.42,19.34s14.6,5.6,22.88,3.41,12.89-13.09,14.17-16.67c1.14-3.17,1-3.68.75-4.33-.53-1.36-1-2.27.29-3.21.64-.49,5.46-1,7.47-.11,1.74.74.56,2.93.41,4-.44,3.06,3.92,11.16,3.92,11.16a26.35,26.35,0,0,0,11.68,11.2c8.4,4.14,19.23-1.46,22.63-4.38s7.18-15.94,7.55-17.89,2.8-4.38,3.16-5.47A2.37,2.37,0,0,0,189.34,97.56Zm-64.25,20.2C114.51,130,102.34,124,98.51,121.59,87,110.28,89.93,96.77,94.67,95.31,118,90,125.34,98.05,125.34,98.05,134.83,104.44,125.09,117.76,125.09,117.76Zm55,0c-4.38,5.47-13.69,14-29,3.83-2.74-2.92-8.21-11-5.11-20.26,0,0,8.33-12,33.4-3.65C184.84,99.51,184.47,112.28,180.09,117.76Z" transform="translate(-1.23 -2.7)"/><path class="cls-9" d="M124.81,105.23s-11.31-16.34-23.36-2.85C109.68,107.19,109.38,109.56,124.81,105.23Z" transform="translate(-1.23 -2.7)"/><path class="cls-16" d="M120,102.22a6.24,6.24,0,0,0-.41-2.21c-2.58-1.89-6-3.43-9.7-2.83a6.31,6.31,0,0,0-.32,9.83c2,.64,4.38.69,8.29-.07A6.28,6.28,0,0,0,120,102.22Z" transform="translate(-1.23 -2.7)"/><path class="cls-17" d="M124.81,105.23S115,89.82,103,100.78l-.77.75c-.27.27-2,1.6-2.26,1.9C100,103.43,114.41,92.49,124.81,105.23Z" transform="translate(-1.23 -2.7)"/><circle class="cls-17" cx="112.51" cy="100.31" r="1.85"/><circle class="cls-9" cx="112.17" cy="99.53" r="0.73"/><path class="cls-9" d="M150.36,105.37s11.77-13,22.23-1.55C164.57,108,164.73,110.28,150.36,105.37Z" transform="translate(-1.23 -2.7)"/><path class="cls-16" d="M155,102.73a6,6,0,0,1,.5-2.08c2.54-1.68,5.81-3,9.32-2.22a6.06,6.06,0,0,1-.2,9.4c-1.95.52-4.18.44-7.84-.48A6.05,6.05,0,0,1,155,102.73Z" transform="translate(-1.23 -2.7)"/><path class="cls-17" d="M150.36,105.37s10.06-14.22,20.82-3.15l.7.75c.24.27,1.79,1.63,2,1.93C173.91,104.9,160.84,93.73,150.36,105.37Z" transform="translate(-1.23 -2.7)"/><ellipse class="cls-17" cx="160.97" cy="103.84" rx="1.77" ry="1.75" transform="matrix(0.03, -1, 1, 0.03, 51.71, 259.33)"/><ellipse class="cls-9" cx="160.31" cy="103.55" rx="0.7" ry="0.69" transform="translate(51.36 258.39) rotate(-88.5)"/><path class="cls-18" d="M109,166.12" transform="translate(-1.23 -2.7)"/><path class="cls-19" d="M138.07,177.8s-18.71,9.07-24.16,8.36l-1.56-.21s2.21-6.68-3.9-20.95C122.74,182,138.07,177.8,138.07,177.8Z" transform="translate(-1.23 -2.7)"/><path class="cls-19" d="M93.11,126.25a116.92,116.92,0,0,0,4,15.76,50.72,50.72,0,0,0,2.09,5.51,18.51,18.51,0,0,0,.7-8.12c-.92-4.57-3.71-5.33-4.89-10.73-.23-1.06.27-5.76,0-6.4-.11-.32-1.9-2.91-2.38-3.81A41.61,41.61,0,0,0,93.11,126.25Z" transform="translate(-1.23 -2.7)"/><path class="cls-19" d="M129.06,125.94l1-3.16a13.29,13.29,0,0,1-.77,4,14.26,14.26,0,0,1-1.39,3.28,5.35,5.35,0,0,1-1.86,1.4s1.83-2.13,2-3.14Z" transform="translate(-1.23 -2.7)"/><path class="cls-19" d="M94.67,95.31" transform="translate(-1.23 -2.7)"/><path class="cls-19" d="M92.9,114s1.77,3.85,3.18,4.93c-.67-23-1.16-23.61-1.16-23.61Z" transform="translate(-1.23 -2.7)"/><path class="cls-19" d="M96.08,118.92c-.13-4.67-.26-8.41-.38-11.42,0-.42,11,2.31,13.85,1.84-4.49-.68-11.34-1.84-13.14-6.33a28.86,28.86,0,0,1-1.49-7.7s-2.56,17.6-2,18.68" transform="translate(-1.23 -2.7)"/><path class="cls-19" d="M103.48,132.49" transform="translate(-1.23 -2.7)"/><path class="cls-19" d="M151.92,107.5s2.66,2.55,4.57,3l1.9.49s5.63-.56,6.88-1.48-3.05,1-6.68,0S151.92,107.5,151.92,107.5Z" transform="translate(-1.23 -2.7)"/><path class="cls-19" d="M132.89,138.55s-1.17-1.34-1.82-2a2.42,2.42,0,0,0-1.64-.71Z" transform="translate(-1.23 -2.7)"/><path class="cls-19" d="M138.37,139.51s.29-.34.61-.67a3.77,3.77,0,0,1,.68-.6,3.88,3.88,0,0,1,1.68-.38c.74,0,1,0,1,0a3.35,3.35,0,0,1-1.46.62,4.77,4.77,0,0,0-1.46.42Z" transform="translate(-1.23 -2.7)"/></svg>