<svg id="Layer_1" data-name="Layer 1" xmlns="http://www.w3.org/2000/svg" xmlns:xlink="http://www.w3.org/1999/xlink" viewBox="0 0 202 263"><defs><style>.cls-1{stroke:#1b5a73;stroke-miterlimit:10;fill:url(#radial-gradient);}.cls-2{fill:#db9889;}.cls-3{fill:#29304a;}.cls-4{fill:#1f161f;}.cls-5{fill:#f2a88f;}.cls-6{fill:#e69e89;}.cls-7{fill:#ca6c66;}.cls-8{fill:#93504d;}.cls-9{fill:#d9d5cf;}.cls-10{fill:#22100a;}.cls-11{fill:#301812;}.cls-12{fill:#ec5723;}.cls-13{fill:#ebe863;}.cls-14{fill:#13a652;}.cls-15{fill:#5a276f;}.cls-16{fill:#164520;}.cls-17{fill:#060505;}</style><radialGradient id="radial-gradient" cx="101.06" cy="116.85" r="100.51" gradientUnits="userSpaceOnUse"><stop offset="0" stop-color="#0688a6"/><stop offset="0.27" stop-color="#0884a1"/><stop offset="0.57" stop-color="#0d7894"/><stop offset="0.88" stop-color="#17637d"/><stop offset="1" stop-color="#1b5a73"/></radialGradient></defs><circle class="cls-1" cx="101.06" cy="116.85" r="100.51"/><path class="cls-2" d="M82.82,124.26,78.06,153.4l12.47,11.9,28,2.83L138.4,154l-7.93-15.58-9.35-2.55,2.55-13.31s-11,6.8-16.14,7.08-13,5.1-14.74,3.68,2.27,1.42-1.7-1.41A63.89,63.89,0,0,1,82.82,124.26Z"/><path class="cls-3" d="M100,262.82s64.64-66.69,67.59-69.62c9.48-9.43,17-18.37,21.91-28.08a22.53,22.53,0,0,0-3.62-4.36c-2.09-2.17-3.89-4-8.05-8.5-7.28-3.69-12.72-6.9-17-8.78l-14.17-6.23-11.33-3.4-14.17,2-6,10.2.29,5.67-.29,13.74L101,166l-12.47-4.39-13-13.6h0l-5.1-17.84H65.6l-18.7,5.38s-12.69,3.76-13.88,4-6.23,3.12-8.5,4.82-10.33,9.11-11.43,11-3,4-2.53,5.35c.57,1.72,4.43,8.06,5.62,10.12,3.94,6.86,7.69,10.7,17,21.31C44.69,205.32,100,262.82,100,262.82Z"/><path class="cls-4" d="M130.55,231.26c-2.15-.77-4.72,4.8-4.72,4.8l-24.41,12s17.92-5.88,19.33-6.73"/><path class="cls-4" d="M67.75,216.84c-2.15-.77-5.84-.18-8.57-3.58L46.46,197.39s9.15,19.29,10.14,20Z"/><path class="cls-4" d="M143.35,213.9c-2.15-.77-4.26-1.73-6.58-.15-3.6,2.46-12.25.86-12.25.86s3,2.75,10.7,2.75Z"/><path class="cls-4" d="M25.65,150.28l7.65,2s4.25,1.7,6.23,4.82,4.25,4.53,7.37,6.52,10.2,12.74,10.2,12.74-8.78-5.38-8.78-6.8-3.4-5.94-6.94-5.09-6.66-3.69-7.8-5.67-7.93-5.06-7.93-5.06Z"/><path class="cls-4" d="M145.68,153.06s20.84-7,19.08-7.53-9.38-5.83-11.14-6.11S148,138,148,138Z"/><path class="cls-4" d="M169,147.73l-24.36,14.45s17.84-1.13,19.26-2l1.42-.85s4.81-3.12,7.36-2.84,7.37,3.12,6.8,5.67-4,18.7-3.68,19.83l.28,1.13,4.54-17.7s.56-8.64,0-10.06-3.45-4.06-6.61-5.19A36.78,36.78,0,0,1,169,147.73Z"/><path class="cls-4" d="M29.62,141.36A14.31,14.31,0,0,1,34.79,139c2.11-.68,11.83-3.26,11.83-3.26l12.8-3.78,4.3-2,1,15.17-4.54,15s-11-8.21-13.31-9.63-7.08-3.4-9.07-2.55S26.12,143.92,29.62,141.36Z"/><path class="cls-4" d="M78.48,151.11s12.27,14.47,28.31,13,23.68-4.43,25.1-6.61l1.42-2.17,4.24-19.83,7.09,1.7s-2.55,19.83-4.25,22.38-19,13.31-28.33,12.18-25.78-5.67-27.77-6.51-1,1.25-2-.85a57.09,57.09,0,0,0-8.21-12.19Z"/><path class="cls-5" d="M138.69,84.41c-5.1,30.19-17.62,52.13-35.95,52.13-14.74,0-26.19-14.82-30.53-35.68-1.06-5.1-2.67-10.79-2.67-16.45,0-28.79,14.86-52.12,33.2-52.12,16,0,34.84,15,37.93,38.7C141.11,74.38,139.29,80.86,138.69,84.41Z"/><path class="cls-6" d="M100.25,92.77s1.51-11.76,0-14.56-4-6.51-6.85-7.12S80.09,69.93,79,70.34s-8.23.09-8.31,1.94-1.16,28-1.16,28l5.59,16.9,4.33,5s-.26-7.93-1.4-15.77-2.48-10.44-2.44-12.09-3.29-7.46.52-8.21,12.31-.47,13.54-1.66a15.73,15.73,0,0,0,2.44-4s2.27-3.41,4.14-2.77,3.19,4.7,3.44,7.09S100.25,92.77,100.25,92.77Z"/><path class="cls-6" d="M113.54,73.84c-1.47,1-2.8,6.94-2.71,7.6s-1.08,1.11.25,4,.78-.84.69.86,2.2,6.52,1.28,3-1.5-1.41-.8-1.85,1.79-3,5.1-1.27,6.21,3.4,8.34,2.18l2.14-1.23s2.26-6.44,4.06-6.48,4.53.8,4.81,1.23-.27-1.47-2.49-3.58-10.63-6.72-12.71-6.59-6.36,2-6.36,2"/><path class="cls-6" d="M97.14,94.75s-3.5,4.06-2.65,6.47,1.49,4.12,2.65,4c.56,0,2.76-1.14,3.79,0a4.59,4.59,0,0,0,2.72,1.51c.38,0-1.6-1-1.89-1.51s-1.41-1.75-2.26-1.51a6.48,6.48,0,0,1-1.73.43c-.17-.08-1-.62-1.18-1.14a2.17,2.17,0,0,1,1.1-2.5c1.14-.44,1-2.38,1.71-3.26.9-1.09,1.48-12,1.48-12Z"/><path class="cls-6" d="M74.1,96.33s6.55,21.94,11.13,26.9C79.9,108.78,74.1,96.33,74.1,96.33Z"/><path class="cls-6" d="M89,106.53s-6.8-2.93-5.67,3.34a36.39,36.39,0,0,0,3.14,10S80.33,105,89,106.53Z"/><path class="cls-6" d="M122.25,109.65a11.23,11.23,0,0,1-2.13,7c-2.54,3.85-5,7.69-5,7.69s6.86-3.71,8-5.17,10-18.89,10-18.89-8.06,12.53-9,14Z"/><path class="cls-6" d="M106.67,127.19c.63.7-3.72,3.83-8.21,0-.47,0,1.64,1,3.74,1"/><path class="cls-7" d="M88.31,110.76A11.24,11.24,0,0,1,89.8,113c2.92,5.54,13.19,18.91,29.58,1.19-7.28,1.13-8.55.71-9.68.29s-3.78-1-4.72-.29a2.71,2.71,0,0,1-2.87-.09,9.18,9.18,0,0,0-3.89-.12C96.83,114.09,87.65,110.08,88.31,110.76Z"/><path class="cls-8" d="M88.31,110.76a30,30,0,0,0,4,3.49c5,3.76,13.79,6.5,23.81,1.67-6.09,2.6-6.71,2-9.07,2.13-7.29.3-12.52-1.53-15.25-4.5Z"/><path class="cls-8" d="M88.31,110.76a30,30,0,0,0,4,3.49c5,3.76,13.79,6.5,23.81,1.67-6.09,2.6-6.71,2-9.07,2.13-7.29.3-12.52-1.53-15.25-4.5Z"/><path class="cls-9" d="M94.09,115.47a21.65,21.65,0,0,0,16,2.52l.7-.16c-1.41.19-2.62.17-3.78.22-5.71.23-10.15-.84-13.12-2.75Z"/><path class="cls-10" d="M78.06,117s9.63,14.36,8.78,22.05S84,157,83.44,164.35s-3,11.39,1.89,16.8.13,2.27-3,0a11.05,11.05,0,0,1-4-4.84l-4-12s-4.53-.28-3.68,6-2.55,8,2.83,10-7.08.86-10.48-4.84-7.08-6.54-5.67-14.8l1.42-8.25a10.77,10.77,0,0,0,5.38-9.4c.14-3.76-1.46-5.27-3.54-4.95-1,.15,1.42-5,1.42-5a83.59,83.59,0,0,1,1-10c.85-5.12.28-22.77.28-22.77V76.11l0-10.89,2.58-7.89,18.7-21.64,21-1.7,15.3,1.7,9.35,3.42,6.8,5.12,9.63,10.54-.57,9.1L147.19,69s-2.41,12.19,1.7,32.11c.87,4.26-2.27,17.41-2.27,17.41s4.86,14,3.42,18.51-4.84,13.09-2.85,15.94l2,2.84A37,37,0,0,1,152,167.2c.57,6.55.29,15.09-3.68,16.94l-4-7.83s.19,11.56,0,9.11-1.13-4.27-2.83-8.26l-1.7-4h0s-4,4.83-6.23,5.69,2.83-3.42-.28-7.4-9.07-8-11-10.53,2.26-9.68,2.26-9.68-6.8-3.13-7.36,4.55-2,9.68,2.26,13.38,9.07,8.82,9.07,8.82-6.52.86-9.63-2.56L115.74,172l-2.83-13.1s-1.14-15.08,2-17.93,1.83-2.77,4.1-3.91,4.14-11.77,4.14-11.77l4.34-6.46s3.86-7.94,4.7-10.42c4.43-13.12,4.72-14.43,6.45-23.58a152,152,0,0,0,1.55-15.14,5.83,5.83,0,0,0-.62-3.13l-6.81-1,.28-9.11s-3.11,3.42-1.7,6.27-4.53-3.42-4.25-5.13-3.4,4.27-3.4,4.27l-20-.49L89.11,61l-.57-5.7-3.4,6S78.35,59,76.08,60.17s-5.7,26.37-4.78,34.56C72.51,105.6,78.06,117,78.06,117Z"/><path class="cls-11" d="M72.82,122.52s4.83,13.62,5.24,21.1-4.39,6-4,8.64c0,0,3.21-1.63,3.58-2a9.57,9.57,0,0,0,1.73-5.88c-.36-2.41-1.28-9.91-2.13-11.83Z"/><path class="cls-11" d="M87.69,43.83s4.88,12.47,4.88,12.4,1.5-1.54,0-6.2-2.1-7.54-2.1-7.54Z"/><path class="cls-6" d="M114.4,101.55a4.93,4.93,0,0,1-1.21,3.33,1.76,1.76,0,0,1-.83.46c-.62.21-2-.25-3.28,0s-1,.7-1.77,1.22c0,0,1.77-1.22,2.76-.66s3.4-.28,4.11-1.34a7.13,7.13,0,0,0,.6-4c-.14-.35-2.79-7.28-2.79-7.28S114.37,100.72,114.4,101.55Z"/><path class="cls-11" d="M64.89,65.58s-5,2.9-4.39,17,2.86,19.2,1,22.6-7.8,17-8.86,21.45-1.92,6.66,0,12a86.65,86.65,0,0,0,6.16,12.45l5.63,6.24s-2.3-8.61-1.88-9.61,1.09-3.42,1.36-4.07a15,15,0,0,1,1.4-2.39c.57-.95-.23-2.55-.23-2.55l.45.28a28.52,28.52,0,0,1-2.2-14.45c.78-8.64,1.13-5.59.57-18.63s-.64-19-.14-20.32-.57-14.1.21-16.22a16.23,16.23,0,0,0,.92-3.82"/><path class="cls-11" d="M144.1,86.62l1.25,10.59a40.27,40.27,0,0,1,.37,4.91c-.06,1.7-2.55,15-2.36,16s1,3.25,1,3.25l1.86-12.59,1.26-6a43.74,43.74,0,0,0,.15-8.06c-.33-4.42-1.06-11.7-1.06-11.7l-2.51,3.66"/><path class="cls-11" d="M135.85,120.82s.85,10.48-2,16.57-7.27,18.47-6.26,20.44c1.61,3.12,4.68,5.7,9.66,7.61,10.68,4.07,11,18.64,11,18.64s.85-14.25-1.42-18.08-15.67-5.25-14.63-11c2-11.05,4.81-13.31,4.53-20.4S135.85,120.82,135.85,120.82Z"/><path class="cls-12" d="M67.77,31.58S72.77,14.49,85.14,7,99.85.23,104.25.51s10.07,3.12,11.59,3.87,7.83,4.16,9,5.38S131,18.92,131,18.92Z"/><path class="cls-13" d="M61.5,47.68s6.65-27.15,18.55-32.25,23.23-9.35,33.14-8.22a27.64,27.64,0,0,1,17.57,9.64c1.7,2,7.64,12.75,7.64,12.75L109.37,18,79.07,29.6,61.5,47.68h0"/><path class="cls-14" d="M142.65,40.08s-2.55-9.63-6-13.6S120.56,12,108.23,12.88s-25.63,4.74-30.17,9S65.31,34.41,65.88,44s36.4-13.88,36.4-13.88Z"/><path class="cls-15" d="M60.5,82.57s-2.55-13-1.7-22.38,3.11-18.13,13-25.5,21-15,37.54-12.18,25.35,6.8,29,10.49,10.2,9.06,9.35,11.89,1.47,8.22,1.47,10.77a69.65,69.65,0,0,0,.52,9.06c.28.85.34,9.64.34,9.64l-3.46,8.92a123.27,123.27,0,0,0-4.25-19.12c-2.83-8.5-2-4.53-7.36-10.48S113.7,43.05,104.24,43.19s-16,1.14-22.78,7.37-15.58,12.7-18.7,17.85C61.43,70.6,60.5,82.57,60.5,82.57Z"/><path class="cls-10" d="M98.13,73.46,95.3,68.55v1.21l-1.13-2v1.51L91.9,66.39l.38,1.88a14.44,14.44,0,0,0-4.34-1.88C85.86,66,86.43,66,85.86,66a41.56,41.56,0,0,0-6,.85,7.39,7.39,0,0,0-2.63,1.08A12.43,12.43,0,0,0,75.75,69c-.47.48-2,2.27-2,2.27L77.93,71l2.26-1.49s7.88-.44,8.69.24,4.52,1.59,4.52,1.59l4.73,2.11"/><path class="cls-10" d="M113.54,73.84l2.21-2.5.94-1.1L118,68.32l0,1.51L120.42,67,120,68.87a15.78,15.78,0,0,1,4.69-1.72c2.23-.31,1.62-.33,2.23-.31a56.65,56.65,0,0,1,6.3,1.07,11.29,11.29,0,0,1,3.33,1.56A12.81,12.81,0,0,1,138.2,71c.48.49,1.35,1.58,1.35,1.58l-4.42-.43c1.41.14-.08-1.74-3.45-1.8a22.77,22.77,0,0,0-8.63.87,28.43,28.43,0,0,1-4.39.7l-5.12,1.93"/><path class="cls-11" d="M146.15,74c-.38-.19-2.93-1-8.22-2.51s-11.9-1.6-18.41-.42c-1.61.29-7,2.46-8.78,2.93-1.42-1-9.92-.47-9.92-.47a14.26,14.26,0,0,1-2.27-.85C92.82,69.3,87.13,69.26,83.82,69s-20.11,2.39-20.11,2.39V74a11.82,11.82,0,0,1,1.82,1,3.81,3.81,0,0,1,1.77,3.21c.19,2.17,2.36,10.67,5.76,15s11.33,4.35,17.75,2.65,10-10.16,11-12.94c.89-2.46.78-2.86.58-3.36-.41-1.06-.74-1.76.22-2.49a10.63,10.63,0,0,1,5.8-.09c1.36.58.44,2.28.32,3.13-.34,2.37,3,8.66,3,8.66a20.46,20.46,0,0,0,9.07,8.69c6.52,3.21,14.92-1.13,17.56-3.4s5.58-12.37,5.86-13.88,2.17-3.4,2.45-4.25A1.83,1.83,0,0,0,146.15,74ZM96.29,89.65c-8.22,9.5-17.66,4.82-20.64,3-8.92-8.78-6.65-19.27-3-20.4,18.13-4.11,23.8,2.13,23.8,2.13C103.84,79.31,96.29,89.65,96.29,89.65Zm42.68,0c-3.4,4.25-10.62,10.91-22.52,3-2.13-2.27-6.38-8.5-4-15.72,0,0,6.47-9.32,25.92-2.84C142.65,75.49,142.37,85.41,139,89.65Z"/><path class="cls-9" d="M96.06,79.93s-8.77-12.68-18.12-2.21C84.32,81.46,84.1,83.29,96.06,79.93Z"/><path class="cls-16" d="M92.35,77.59A4.85,4.85,0,0,0,92,75.88a10.12,10.12,0,0,0-7.53-2.2,4.88,4.88,0,0,0-.24,7.63c1.57.5,3.4.54,6.43,0A4.88,4.88,0,0,0,92.35,77.59Z"/><path class="cls-17" d="M96.06,79.93s-7.61-12-16.89-3.45c-.2.18-.4.38-.6.58S77,78.3,76.81,78.53C76.81,78.53,88,70,96.06,79.93Z"/><circle class="cls-17" cx="87.47" cy="78.21" r="1.44"/><circle class="cls-9" cx="87.21" cy="77.6" r="0.57"/><path class="cls-9" d="M115.9,80s9.13-10.12,17.25-1.2C126.92,82.08,127.05,83.85,115.9,80Z"/><path class="cls-16" d="M119.53,78a4.86,4.86,0,0,1,.38-1.62,9.54,9.54,0,0,1,7.24-1.72A4.71,4.71,0,0,1,127,82c-1.51.4-3.24.34-6.08-.38A4.69,4.69,0,0,1,119.53,78Z"/><path class="cls-17" d="M115.9,80s7.8-11,16.15-2.44c.18.18.36.37.54.58s1.4,1.26,1.58,1.49C134.17,79.67,124,71,115.9,80Z"/><ellipse class="cls-17" cx="124.13" cy="78.85" rx="1.37" ry="1.36" transform="translate(42.05 200.87) rotate(-88.5)"/><ellipse class="cls-9" cx="123.62" cy="78.63" rx="0.54" ry="0.54" transform="translate(41.77 200.14) rotate(-88.5)"/></svg>